<?xml version="1.0" encoding="UTF-8"?>
<svg xmlns="http://www.w3.org/2000/svg" id="_圖層_1" data-name="圖層 1" viewBox="0 0 1133.86 566.93">
  <defs>
    <style>
      .cls-1 {
        fill: #10305a;
      }
    </style>
  </defs>
  <g id="_0tdlw8" data-name="0tdlw8">
    <g>
      <path class="cls-1" d="M520.93,208.16c.2.66.38,1.2.02,1.85l.42.23c.1,1.23-.52,1.62-.76,2.41-.02.05-.02,1.07,0,1.13.16.54.74.57.95.75.08.07-.2.63-.21.88-.03.66.3,1.2.37,1.62.04.27-.22.61-.17.95.02.14.34.17.5.33.21.21.25.65.72.59-.51.42-.15.71-.23,1.05s-.79,1.06-.78,1.63l.36.15.05.56c.69-.68,1.81-1.06,2.29-.03.33-.09.92-.38,1.22-.36.36.02.65.6,1.3.28l.31.53c.4-.19,1.02.02,1.33-.05.82-.18,1.76-.4,2.6-.62.32-.08.81-.52,1.26-.49.15.01.32.31.51.43.16.09.38.06.53.17.08.06.02.33.16.34.49.06.66-.45,1.18-.41.35.03,1.04.13,1.4.2.16.03.1.29.17.34.41.32.99,0,1.41.09.58.12.94.32,1.75.45s1.14.51,1.35,1.26c.1.36.07.86.16,1.26-.67.11-.41.56-.55.75-.04.06-1.18.63-1.27.64-.53.09-1.95-.15-2.58-.22-.27-.03-.53-.22-.81-.19s-.43.3-.64.37c-1.24.39-1.39-.75-2.16-.96-.11-.03-.13.32-.3.49-.37.36-1,.54-1.5.49s-.87-.88-1.43-.96c-.24-.03-.4.27-.61.33-1.12.31-2.32-.02-3.07.14-.58.13-.71.69-1.59.41-.67-.21-1.32-1.23-1.99-.41.58.32.2.67.25.97.07.4.28,1.18.73,1.15-.35.93-.14,1.63-.04,2.51.03.28.03,1.95.1,2.03.03.04.25,0,.3.07.04.05.4,1,.4,1.06.03.37-.71.44.15,1.11.18.14.44.17.49.21s-.33.87.03,1.27l-.43.23.02.76c-.92.35-.62,1.83.4,1.73-.41.51.11.66.18.93.05.21-.23.37-.28.57-.33,1.19.44.96.51,1.23.33,1.19-.41,2.48-.21,3.54.04.21.53.16.59.44.02.1.01,1.85-.02,1.94-.48,1.49-.52,1.74-.19,3.28.07.34.07.83.19,1.4.15.72.09,1.58.75,2.05.2-.06.06-.39.2-.6.11-.17.44-.22.6-.4.55-.63.25-2.44.8-3.2.1-.14.39-.14.46-.24.09-.14-.01-.43.07-.52.09-.1.54,0,.69-.22s.01-.64.11-.79c.05-.07.56-.14.77-.33.07-.06.77-1.16.78-1.23.05-.24-.29-.4-.35-.61-.02-.07-.03-1.44,0-1.52.07-.24.35-.34.46-.55.58-1.03-.14-.84-.27-1.32-.02-.07.15-1.21.19-1.35.24-.85.93-1.77,1.29-2.51.27-.56.39-1.79,1.1-2.09.06-.03,1.16-.05,1.33-.04.23.01.88.1,1.03.19.05.03.04.21.11.27.17.14.43.18.5.4.07.25-.11,1.03-.1,1.34.03,1.53,0,3.7-.73,5.07-.49.92-1.22,3-1.28,4.18-.02.29.21.54.13.92-.13.62-.75,1.01-.77,1.08-.28.91-.37,2-.65,2.91-.27.88-.41,1-1.32,1.18l-.46,1.73c-.94.24-.94,1.22-1.47,1.83-.15.17-.43.18-.47.23-.06.08.24,1.31-.27,1.93-.1.12-.49.13-.51.33,0,.09.17.37.17.61.02,1.41-1.06,1.31-1.2,1.83-.17.34.32.61.33.77.01.15-.27.41-.31.64-.16.87-.37,1.82.57,2.18l-.2,1.66c.75.02.63.68.86.96.06.08.33.02.35.18.02.19-.12.39-.12.57,0,.26.15.52.12.78-.01.11-.58.15-.55.62.26.22.34.89.53,1.01.4.27.95-.28.83.67l.56.03c-.01.65.12,1.08.81,1.2-.3.66-.03.67.15,1.13.21.51-.05.88.84.86.1.09-.08.59.04.76.03.05.97.42,1.08.42.33,0,.57-.32.84-.37.46-.08,1.65.23,2.06.09.19-.06.73-.43.74-.61l-.46-1.31c.4-.23.56-.7.83-.99.15-.16.46-.17.5-.33.22-1.15-.63-1.37-.62-1.77,0-.07.52-1.12.6-1.22.17-.21.53-.25.58-.31.16-.22.03-1.18-.13-1.48l.57-.4-.99-1.96c.56-.4.53-1.23,1.13-1.48,1.57-.66,2.76.19,3.62,1.45l-.33.4c.68.61,1.04,1.26.98,2.21-.03.42-.28.22-.42.42-.42.62,0,.96,0,1.38,0,.46-1.13,1.71-.58,2.57l-.43.23.2.47c-.87.17-.83,1.2-.57,1.9l-.42.23c-.03.87-.03,1.68.4,2.46-.67,0-.58.66-.85.96-.09.11-.64.63-.76.74-.49.42-1.65.73-2.29.72-.35,0-.67-.25-1-.22s-.94.63-1.45.77c-.31.08-2.46.37-2.79.39-.19,0-1.39-.12-1.54-.17-.32-.09-.71-.99-.77-1.33l-1.46-.44c-.08-.34-.48-.58-.6-.81-.16-.3.22-.66-.39-1.2-.38-.33-.8-.27-1.06-.45-.06-.04-.05-.21-.12-.27-.8-.73-.36-.56-.62-1.48-.16-.57-.92-1.37-1.02-1.77-.02-.08-.11-1.57-.11-1.71.02-.39.32-.8.2-1.18-.1-.32-1.81-1.18-1.18-1.92-.33.03-.88-.13-1.1.2-.06.09-.59,1.12-.61,1.18-.06.22.21,1.37,0,1.62-.1.12-.32.14-.43.26-.31.3-.93.68-.96.74-.54.72-.49,1.66-1.87,1.82-.06.47-.09,1.55-.42,1.88-.05.05-1.07.64-1.13.66-.23.05-.57-.25-.87-.16.15.61-.27,1.39-.7,1.8-.28.26-.61.15-.9.3-.24.13-.41.51-.8.52.28,1.05,0,1.97-1.02,2.47-.55.27-1.06.52-1.6.8-1.17.6-1.26,0-1.9-.1-.42-.06-1.04.34-1.27.18-.04-.03,0-.23-.09-.3-.35-.32-1.25-.87-1.45-1.27-.17-.35.1-.63.01-.8-.11-.23-.64-.48-.69-.72s.28-.4.35-.62c.12-.4.01-.92.34-1.25.2-.21.82-.37,1.16-.6.15-.11.54-.72.58-.75.22-.14.59.03.74-.06.1-.06.11-.65.26-.75.2-.14.64.07.86-.63.47.34,1.17.38,1.7.11.23-.12.3-.45.47-.64s.66-.21.33-.85h.6c-.2-.47.46-1.83.79-2.12.45-.39.91-.25,1.3-.47.21-.12.05-.42.15-.57.29-.42,1.3-.62,1.71-.8,1.35-.61.92-2.87,1.45-3.71.09-.14.32-.11.41-.25.12-.18.16-.64.2-.67.11-.1.53.14.7.12s.41-.34.67-.35c-.19-1.03.26-1.9.89-2.71.07-.1.32-.11.43-.26.41-.54.02-1.02.14-1.45.08-.29.49-.58.49-1.05,0-.42-.45-.92-.45-1.19s.4-.99.3-1.41c-.03-.13-.28-.08-.37-.22-.32-.47-.11-1.09-.19-1.57-.09-.51-.71-1.13-.39-1.97l-.94-.82c.2-.45.09-.93.15-1.39.07-.5.36-1.18.38-1.63.07-1.68-.62-4-.38-5.76.05-.4.37-.84.34-1.18-.03-.39-.35-1.16-.44-1.72-.18-1.08-.38-1.01-.62-1.8-.13-.44-.04-.9-.25-1.32l.92-.58c-.2-.21-.11-.81-.19-.88s-.44.01-.68-.22c-.08-.08-.44-.82-.46-.94-.04-.35.5-2.24,1.16-2.07v-.2c-.35,0-1.1-.65-1.18-.94-.12-.44.25-.81.16-1.13-.06-.22-.36-.34-.47-.53-.15-.26.03-1.79.18-2.01.13-.2.55-.13.51-.29-.18-.66-1.04-1.61-.65-2.41l-.26-.29c-.95.01-2.57.64-3.42.54-.39-.04-.72-.27-1-.29-.42-.03-.95.26-1.57.15-.67-.12-.8-.82-1.96-.56-.36.08-.75.48-1.07.52-.5.06-1.02-.39-1.37-.47-.13-.03-1.23-.11-1.4-.11-1.02.02-1.81,1.56-3.1.72-.2-.13-.25-.55-.5-.7-.23.3-.89.55-1.24.56-.28,0-.39-.27-.55-.28-.18-.02-.47.15-.79.12-.46-.04-.84-.41-1.32-.4.29.52-.06,1,.03,1.45.18.91,1.4,1.63,1.37,2.85,0,.38-.91.89-1,1.79-.05.49.27.26.6.3-.33.63.27.85.21,1.71-.03.42-.28.21-.42.42-.35.5.14.99-.02,1.54-.1.34-.71.59-.78,1.24-.08.82.7,1.74.62,2.56-.02.16-.32.07-.41.26-.47,1.01-.53,2.67-.16,3.72.29.83.84.4,1.3.4.33,0,1.04.17,1.33.08.41-.13,1.35-.79,1.83-.75.39.03.68.5,1.11.21v.6c1.07.17,2.07-1.24,3.11-1.12.05,0,.84.32.87.35.09.1.01.41.03.57l1.51-.14c.34.41.85.96,1.34,1.19.4.18,1.11.11,1.14.16.04.05-.02.43.05.64.18.51.32,1,.49,1.51s.63,1.01.67,1.55c.05.69-1.02,1.31-1.02,2.18,0,.43.27.74.31,1.08.02.18-.09.38-.06.51.25,1.33,1.1,3.03.72,4.36-.07.26-.53.61-.51.84.02.25.54.68.35,1.57-.03.16-.3.1-.41.25-.48.69.05.81.17,1.22.22.74-.92,1.83-1.13,2.59-.26.97.4,1.83-.85,2.55-.19.11-.52.07-.57.12-.08.08.02.46-.01.65-.02.1-.68.2-.42.92-.67-.16-.55.34-.79.51-.17.12-.47.06-.56.14-.06.06-.27.98-.48,1.12-.05.04-1.14.26-1.26.25-.31-.03-.49-.38-.81-.42-.14-.02-1.57-.02-1.8-.01-.48.02-.64.35-1,.42-.62.11-1.53.04-2.01-.39-.08-.07-.79-.93-.81-1-.11-.5.15-.74.09-1.07-.05-.27-.39-.52-.38-.84,0-.08.6-1.44.69-1.51.1-.09,1.15-.53,1.21-.53.1,0,.27.21.45.28.2.08.47.04.65.16.21.14.22.58.52.68.86.28,1.86-.81,2.68-.38-.17-.71.29-.56.61-.89.48-.5.51-1.73.78-2.42.11-.28.35-.46.41-.6.16-.41-.41-.24-.38-.38.24-1.13-.05-1.7.03-2.38.09-.75.81-2.27.94-3.02.11-.65-.39-1.77-.39-2.4,0-.52.41-.84.41-1.2s-.39-.62-.39-.99c0-.5.56-1.71.55-1.81-.02-.42-.88-.49-1.17-.59s-.46-.38-.79-.31v.58c-.57-.14-.91.35-1.3.42s-1.37.15-1.81.17c-1.49.07-1.14-.86-1.69-1.26-.91-.66-3.06.11-4.2,0l.21,1.78c-.95.28-.02,1.54-.07,2.23-.01.14-.64.71-.73.99l-.4-.1c-.12.1.35,1.39.32,1.71-.02.18-.37.51-.42.87-.06.44.32,1.03-.06,1.53l.55.31c-.33.44.02.81-.02,1.23-.06.65-1,2.07-1.13,2.89-.11.68.26,1.16.17,1.75-.08.54-.58.41-.62.62-.08.46.12,1.07-.02,1.54-.11.36-.87.86-.97,1.43-.16.96-.26,3.49-.11,4.39.03.19.26.34.3.6.12.71-.08,1.32-.69,1.71-.26.17-.65.17-.69.21-.07.06.02.59-.06.84-.08.27-.45.51-.53.88-.05.23-.05,1.42-.02,1.74.05.59.54,1.67.14,2.28-.03.04-.24.03-.35.17-.57.72-1.92,2.48-2.75,2.63-.43.08-1.96-.76-2.16-1.16-.07-.14.1-.44.09-.69,0-.19-.16-.39-.15-.59.03-.33.49-.61.56-1.03.13-.74-.13-1.45-.21-2.18.41-.26.7-.32.62-.92l.6.2c-.15-.73.2-1.41.22-2.09.02-.56-.28-1.12-.19-1.56.03-.12.56-1.26.61-1.3.14-.11.51,0,.67-.23.05-.07.43-1.47.48-1.72.03-.12-.28-.04-.4-.21-.56-.82.46-2.62.59-3.58.07-.51-.08-1.07.05-1.54.08-.29.98-1.16.74-1.32l-.39-.14c-.16-.91-.24-2.92.31-3.68.11-.16.47-.12.5-.33.18-.95-.22-2.46-.11-2.88.07-.25.42-.49.43-.68.08-.93.42-3.74.95-4.44.21-.27.34-.05.41-.85.11-1.26-.3-2.57.31-3.81l-.78-.22c-.13-1-.08-2.24.98-2.58-.51-1.08-1.01-1.84-.59-3.05.02-.05.25-.27.44-.78.28-.76.73-1.39-.26-1.86.11-.75.24-1.52.32-2.29.19-1.64.16-3.08.22-4.67,0-.11-.17-.29-.14-.32l.8-.31c-.5-.94-.55-2.75-.39-3.79.07-.47.51-.97.54-1.43.04-.54-.44-1.44-.36-1.94.02-.15.34-.17.5-.33.13-.13.16-.4.31-.5.47-.31,1.68-.21,2.21,0,.25.1.63.46.7.46.11,0,.41-.42.8-.47.99-.13,3.07.58,4.16.28.28-.08.51-.47.84-.49.64-.03,1.51.71,2.42.64.45-.03,1.52-.54,1.97-.52.97.04,2.77.79,3.63.78.76,0,1.07-.84,1.68-.88.46-.03,1.26-.02,1.3.48l1.1-.2c.32-.73.03-1.2,0-1.88-.03-.57-.2-1.32-.2-1.59,0-.54.46-1.06.12-1.7-.09-.17-.43-.3-.44-.49-.03-.45.67-1.75.29-2.27-.04-.05-.26,0-.34-.17-.39-.8.18-3.02.18-3.96,0-.34-.34-.62-.33-.79,0-.05.4-.81.45-.89.16-.22.51-.28.71-.5.15-.16.15-.44.2-.5.03-.03.21.13.33.13.24.01.47-.08.65-.03.45.12,1,.7,1.56.72Z"></path>
      <path class="cls-1" d="M528.55,209.14c.49.89.86,1.96,2.02,1.99-.19.43-.03.86.3,1.19.23.23.53.17.7.3.21.16.13.47.26.65.05.07.25.04.29.09.23.32-.28.92.46,1.08-.45,1,.24.93.48,1.27.14.2-.18.16.44.68.15.13.07.48.67.33-.4.5.09.64.16.93s-.43.98.04,1.47c-.71-.09-.81.59-1.5.62-.35.02-1.84-.33-2.1-.52-.48-.34-.3-1.07-.43-1.27-.03-.04-.62-.23-.87-.43-.61-.46-.51-.83-.75-1.15-.1-.14-.51-.17-.66-.44-.27-.51.12-1.07.02-1.21-.15-.21-.64-.27-.81-.59s-.11-.91-.4-1.2c-.23-.23-.64-.17-.81-.39-.2-.26-.35-1.15-.3-1.5.08-.53,1.15-1.59,1.61-1.81.23-.11.82.13,1.17-.08Z"></path>
      <g>
        <path class="cls-1" d="M674.97,207.34c.06.04.1.3.24.45.42.42.71.37.73,1.25s-.72,2.15-.34,2.92c.1.19.38.11.36.23-.08.68-.01,1.37-.17,2.1.46.06.82-.01,1.1-.4l.43.61c.75-.2,1.52.49,1.98-.21.16.42.99.96,1.41,1.01s.61-.25.88-.31c.28-.06.74.19,1.11-.11l.22.43.69-.22.1.6c1.35-.27,2.45-.98,3.81-1.16.24.53,1.22,1,1.79.93.62-.07,1.4-.87,2.19-.79.38.9,1.44.44,2.21.45.56,0,2.21.24,2.59.18.16-.02.1-.28.17-.34.4-.37.75-.08,1.15-.16.76-.14,2.08-.64,2.74-.67.46-.02.92.84,1.52.74.42-.07.66-.52.94-.66.19-.1.68.04.9-.31.27.55,1.08.95,1.69,1.1.98.24,2.04-.06,2.99-.3l.22.5c.14.11.72-.07,1.07.09.17.08.13.29.19.33.19.13.51.06.67.26.12.16-.06.4-.03.5.06.22.32.37.32.6,0,.26-.3.41-.33.6-.02.14.14.34.08.56-.09.34-.58.69-.39,1.33-.44-.04-.73.35-1.08.42-.38.07-2.17-.1-2.56-.24s-.57-.65-.87-.74c-.39-.11-.66.15-.97.16-.63.01-1.25-.67-1.89-.07-.21.19-.22.48-.54.66-1.16.64-1.83.09-2.77.12-.37.01-.72.33-1.18.31-.51-.02-1.17-.6-1.38-.57-.2.03-.42.28-.67.34-.88.21-1.81-.41-2.55-.37-.46.03-1,.62-1.38.57-.05,0-.88-.32-.99-.37-.18-.08-.13-.31-.17-.34-.69-.49-1.04.78-1.69.91-.07.01-1.14-.12-1.34-.15-.19-.03-.16-.39-.32-.51-.1-.07-.99-.29-1.09-.27-.24.05-.37.5-.82.57-.66.1-1.72-.19-2.37-.14-.37.03-1.18.35-1.41.31-.25-.05-.39-.53-.83-.58-.09,0-1.7-.01-1.79,0-.37.05-.96.6-1.62.53-.23-.02-.8-.64-1.19-.65-.25,0-.57.25-.86.29-.2.02-1.26-.13-1.25.14.07.42.8,1.25.8,1.59,0,.21-.18.42-.19.63-.04.54.5.58-.22.79.35.65.03,1.42-.19,2.09l2-.2.21.8c.41.14,1.02-.36,1.3-.33.13.02.28.26.59.31.16.03,1.03-.08,1.17-.17.5-.31.02-.72,1.44-.62.63.05,1.42-.05,1.79,0,.44.06.92.77,1.5.4l.1.6c.3-.54,1.65-.89,2.2-.81.33.05.54.45.77.39.33-.08,1.51-.75,1.84-.79.5-.06.84.42,1.2.41.3,0,.48-.38.8-.41.3-.03.65.2.99.22.63.03,1.27-.04,1.9,0v.58s1.78.24,1.78.24c-.16.78.87,1.03.99,1.21.03.05.19.98.19,1.11.01.27-.26.39-.28.55-.03.22.21.66.12.97l.59.45c-.24.64-.16,1.7.02,2.37.12.45.49.6.52.8.01.1.05,1.05.04,1.16-.07.71-1.14,1.72-1.09,2.85.01.33.43.58.45.79.1,1.06-.16,2.97-.05,4.01.02.21.43.45.45.79.02.55-.37,2.72-.3,2.97.07.23.39.35.48.53.43.81-.28,1.92-.87,2.5.53.64.78,2.21.26,2.9-.19.25-.69.21-.7.9,0,.38.39.47.5.7.13.26.04.62.14.76.06.09.36.09.47.22.34.45-.04,1.9-.05,2.47,0,.33.25.75.15,1.22-.03.15-.3.09-.35.16-.13.18-.03.63-.22.87l.58.42c-.06.91-.25,1.87,0,2.76l-.42.23v1.07c-1.05.05-1.18.87-.07,1,1.27.15,1.95-1.02,2.99-.98.25.01.39.25.49.27.21.04.38-.03.6.01s.36.29.66.27c.85-.06,1.34-1.07,1.66-1.13.26-.04.75.32,1.17-.05l.21.42c.42-.23,1.53-.47,1.99-.41.35.05.66.51,1.11.42-.47.58.91,1.76.93,2.08s-.27,1.04-.15,1.5c-.69-.18-.55.41-.92.57-.17.07-.59.14-.81.17-1.9.25-2.74.62-4.76.46-1.5-.11-1.69.68-2.4.81-1.12.2-2.41-.77-3.31-.3-.39.21-.27.55-1.1.51-.75-.04-1.92-.83-3.01-.81-.35,0-1.1.69-1.42.74-.18.03-.38-.14-.54-.11-.28.04-.42.5-1.44.53-1.1.03-1.53-.4-2.38-.54-1.22-.2-3.31.72-4.17.53-1.16-.26-.79-.36-2.23-.35-1.16,0-2.18-.19-3.21-.23-.21,0-.39-.12-.59-.19l-.43.59c-.36-.07-.93.17-1.19.14-.15-.02-.32-.29-.6-.33-.56-.08-1.41.35-2.15.01-.23-.1-.19-.4-.33-.51-.46-.34-1.1.08-1.51.08s-.82-.29-1.4-.18c-.46.08-.91.43-1.61.39-.63-.04-.04-.35-1.04-.04-.89.28-1.9.61-2.74.03-.26-.18-.28-.56-.44-.59-.28-.04-.6.05-.94-.03-.36-.08-.76-.49-1.07-.52-.46-.05-1.9.76-2.17-.24h-.3c.06.41-.84,1.1-1.13,1.16-.15.03-1.12-.18-1.58-.17-.78.02-2.16.37-2.84.06-.46-.21-.76-.81-1.36-.85-.44-.03-.64.27-.87.3-1.1.17-2.08.17-3.15.45-.51.14-2.34-.42-3.14-.55-.17-.03-.1-.31-.25-.41-.13-.08-.85-.33-.98-.33-.34,0-.62.52-.99.53-.5.01-1.32-.35-1.61-.79-.12,0-.67.79-.9.91-.09.05-1.14.08-1.25.05-.17-.05-.31-.24-.51-.32-.19-.07-.45,0-.6-.1-.06-.04-.04-.23-.11-.28-.65-.49-.86-.59-.84-1.57,0-.44.36-.87.1-1.3.82.22,1.15-.46,1.61-.7.14-.07,1.06-.46,1.14-.48.33-.08.72.23,1.15.18.43-.05.54-.49.84-.58.52-.15,1.22.11,1.76-.24.23.78,1.19.06,1.13,1.19.4-.09.96.21,1.26.18.33-.04,1.14-.52,1.64-.52l.49.56c.2-.62-.44-.96-.4-1.48.03-.33.27-.71.22-1.11h.58c-.02-.54-.26-1.4-.2-1.9.04-.34.4-.51.4-.8,0-.56-.41-1.63-.41-2.21,0-.51.45-1.1.33-1.59-.3-1.17-.71-1.77-.22-3.11.21-.59,1.15-1.47.1-1.9.55-.97-.45-2.74-.39-3.37.08-.91.95-1.9.75-2.98-.05-.29-.34-.5-.34-.82,0-.39.42-1.48.35-1.78-.04-.19-.37-.34-.37-.63,0-.06.41-1.02.45-1.06.12-.12.62-.01.76-.34-.96-.62-.36-1.12-.38-2-.02-.71-.4-1.18,0-1.95.09-.18.3-.12.4-.27.34-.49-.22-.94-.2-1.37s.76-1.48.61-2.58c-.04-.33-.4-.5-.41-.8,0-.09.2-.84.23-.87.05-.05,1.23-.52,1.34-.54.32-.04.67.17,1.02.1-.23-.4-.86-.87-.71-1.41.18-.69.96-1.45,1.71-1.49.27-.01.63.29,1.22.19.54-.1,1.14-.51,1.47-.48.12,0,.86.2.89.24.12.13,0,.84.53.77l.43-.57c.5-.25,1.57-.04,1.89-.12.3-.07.53-.48.89-.52s.85.28,1.28.23v.58c.09.13,2.38-1.02,2.92-1.02.5,0,.67.39,1,.43.45.05.69-.3,1.03-.36.22-.04,1.66.11,1.95.16.31.05,1.82.48,1.92.39-.34-.76.22-2.11-1-2,.25-.51,0-1.12.04-1.47s.48-.62.52-.85c.03-.18-.15-.4-.13-.57.02-.31.23-.57.17-.9-.82.45-1.75-.13-2.55-.35-.35-.1-.79-.07-1.05-.17-.39-.15-.81-.65-1.31-.68-.25-.02-1.94.31-2.16.44-.42.24-.82,1.16-1.63,1.17l-.14-.36c-.46.18-.85-.23-1.27-.23-.74,0-1.2.82-2.38.59-.15-.03-.08-.31-.26-.4-.95-.45-2.3.67-3.38.79-.57.06-.91-.17-1.38-.2-.79-.04-2.26.17-2.86-.44-.31-.31-.06-.99-.94-.97-1.1.02-1.85,1.19-2.39,1.21-1.12.03-1.72-1.27-2.77-.95-1,.3-.73.07-1.68.03-.41-.02-1.13.2-1.45.04-.91-.46-1.09-1.41-.69-2.29.16-.36,1.3-1.47,1.62-1.57.23-.07.49-.02.72-.08.68-.2.73-.44,1.61-.15.19.06.12.29.27.4.52.36.81-.04,1.25-.1.22-.03.46.14.68.08.28-.08.52-.56.93-.69.44-.14.93,0,1.33-.28l.19.4c.74-.44,1.33-.01,2.09-.01l-.2.6c.45.17,1.68-.4,1.87-.37.48.07,1.36.56,2.04.56.65,0,2.04-1.1,2.39-1.11.13,0,1.03.13,1.08.16.09.06.04.39.36.53.23.1,1.68.37,1.89.33.57-.11.99-.74,1.45-.95.35-.16.66,0,1.04-.13s.73-.54,1.03-.57c.7-.08,1.27.73,1.95.34l.24.43c1.04-.37,2.01.29,2.99.1.4-.08.89-.45,1.24-.48.36-.02.45.47.86.37.08-.52-.25-.96-.2-1.48.06-.66.64-1.56.61-2.31.59.45.97-1.08.98-1.52.01-.4-.29-.71-.17-1.14.03-.11.41-.71.51-.74.36-.13,1.77-.14,2.02.04ZM685.98,230.11c-.15-.11-1.01.3-1.3.31s-.54-.19-.92-.12c-.83.17-.82.83-2.09.22-.32-.15-.55-.55-.79-.62-.49-.14-2.52-.09-3.36-.24-.68-.12-1.54-.54-2.23-.58-1.01-.05-1.74,1.11-2.78,1.21-.16-.7-.46-.16-1.09-.12-.23.02-.89-.06-1.09-.13-.34-.12-.32-.53-.52-.68-.36-.26-.67.06-.94.05-1.4-.02-.98.04-2.17.47-1.15.42-1.21-.28-2.18-.61l-1.24,1.36c-.38-.15-.95-.1-1.28-.26-.47-.24-.39-1.11-1.3-1.12-.72,0-.52.36-.76.56-1.31,1.09-1.83.81-3.4.45l-.65-.81c-.84.41-1.39.46-2.29.21.8.87.42.54.25,1.14-.12.43-.28,1.12.06,1.46.16.16.51.16.5.32,0,.12-.15.28-.14.41,0,.26.15.49.11.73-.08.5-.87,1.19-.25,1.75.2-.05.39-.17.6-.19.84-.1,1.54-.29,2.29-.53.18-.05.25-.4.6-.29l.12.61c.65.15,1.14.33,1.77-.02l.23.42c1.44.11,2.56-.02,3.94-.25.59-.1,1.51-.74,2.05-.68.25.03.9.75,1.36.69.34-.04,1.13-.76,1.82-.78.29.73,1.27.96,2.01,1.02,1.42.1,3.08-1.01,4.17-.75.39.09.62.65,1.31.18l.14.38c.61-.4.99.15,1.39.2.13.02,1.73,0,1.97,0,.17,0,.09-.31.25-.41.09-.06,1.31-.59,1.38-.6.37-.03.85.28,1.28.23l.02.58c.4-.16.83-.12,1.25-.25s1.52-.72,1.85-.68c.16.02.54.41.87.36l.03.57,1.8-.2c-.14,1.28,1.31.55,2.1.5.22-.01.5.13.79.12.48-.02.85-.35,1.39-.03.45-.72,1.05-1.55.91-2.47-.05-.32-.31-.58-.32-.8s.16-.5.14-.8c-.04-.66-.41-1.13-.02-1.9l-1.69.41c-.5-1.24-1.07.59-1.84.74l-1.35-.15-.23-.42c-.78.22-1.38.55-2.21.24-.41-.15-.25-.35-.32-.4ZM674.76,239.41c-.11.08-1.46.48-1.65.47-.3-.01-1.53-.18-1.77-.25-.34-.09-.56-.67-.87-.75-.27-.07-.51.16-.77.16-.36,0-.82-.3-1.2-.29-.73,0-1.04.74-1.64.87-1.04.23-2.11-.17-3.16.65l-.23-.42-.64-.04-.05-.34c-1.17.95-2.21-.07-3.3-.22-.72-.09-1.24.31-2.16,0-.2-.07-.1-.38-.25-.41-.68-.12-.92.46-1.43.57-.41.09-.84,0-1.25.05-.25.84.2,1.83-.83,2.3.45.59-.16.78-.2,1.19-.04.37.32.86.21,1.29.31-.21.8-.22,1.07-.39.16-.1.08-.39.24-.42.45-.08,1.23.26,1.59.18.12-.03.03-.3.35-.43.41-.17.82.11,1.23-.14h.11c-.1.9.78.96,1.35,1.27.06.03.03.24.2.32.81.42.84-.01,1.39-.37.17-.11.41-.13.54-.22.19-.13.14-.53.66-.55l1.06.17.02.58c.44.24,1-.35,1.1-.35.16,0,.52.63,1.08.18l.13.39c.56-.02,1.34-.64,1.79-.63s.81.38,1.29.03c.14.84.48.46.92.49,1.19.08,2.54-.41,3.2-.31.44.06.65.68,1.28.24l.13.39,1.78-.63c.39.07,1.1.7,1.4.73.33.03,1-.23,1.41-.22,1.18.03.93.15,2.24-.05,1.06-.16,1.9-.19,2.97-.43.11-.03.04.28.21.39.44.3,1.82.1,2.33-.05.29-.08.54-.48.87-.52.09,0,1.01.15,1.05.18.09.09-.01.69.34.76.58-.26,1.14-.02,1.75-.05.27-.01.53-.22.84-.24.54-.03,1.16.1,1.7.1-.04-.72-.46-.87-.41-1.7.05-.78.4-1.26.58-1.84.15-.49-.23-.89-.49-1.27-.61.03-1.14.53-1.74.39-.25-.06-.47-.32-.67-.35-.25-.04-.4.27-.61.34-.96.31-1.21-.27-1.76-.36-.82-.14-1.72-.12-2.59-.41-.38.78-1.58.49-2.38.65-.23.04-.46.3-.64.3-.06,0-1.01-.35-1.05-.39-.24-.18-.26-.83-.95-.95-1.12-.2-3.35.67-4.37.2-.19-.09-.1-.4-.25-.42-.28.07-.71.11-.94.22-.17.08-.12.3-.18.34ZM656.37,247.7c-.16-.11-1.97-.09-2.18.05-.37.25-.04.62-.09.92s-.38.72-.46,1.14.13,1.3.06,1.66-.73,1.31-.28,1.76c.35.35,2.45-.2,3.08-.19,1.83.04,1.38.62,3.44-.12.18-.06.56.18.76-.26.25.67,1.38.93,2.05.96.29.01.44-.32.76-.37.7-.1,1.64.44,2.29,0v.6c.36.09.44-.25.74-.36.8-.27,1.04.06,1.35.07.4,0,1.43-.01,1.77-.16.53-.23.44-.46,1.28-.71.16-.04.28-.22.37-.25.15-.04.09.26.2.39.19.23.5.14.65.27.08.07.02.33.17.35.82.1,1.1-.8,1.21-.82.85-.15,2.09.28,2.98.23.52-.03,1.16-.62,1.81-.54.34.04.73.6,1.49.12v.59c.96.2,1.45-.62,2.4-.7.28-.02.37.24.5.25.19.02.52-.38.99-.34.42.03,1.09.4,1.22.82.67-.48,1.32.12,1.99,0l.11-.6c1.11.09,1.67-.57,2.66.19.16.13.12.39.25.41.53.08.7-.25,1.09-.33.63-.13,1.23.61,1.8.32l.2.6c.02-.75-.38-1.62-.01-2.31l-.4-.2.21-1.47c-.4.11-.7-.32-.92-.36-.2-.04-.45.18-.73.13s-.53-.41-.81-.34c-.34.09-1.1.5-1.43.56-1.22.23-.9-.13-1.39-.61-.69-.67-1,.06-1.81.02-.68-.04-2.09-.61-2.4-.61-.11,0-1.61.22-1.96.26-.63.07-2.76.72-3.01.69-.83-.1-1.26-.54-2.64-.56-1.26-.02-1.13-.12-2.24-.36-1.95-.42-3.63-.52-5.52,0-.18.05-.32.28-.48.31-.29.07-1.2-.34-1.59-.35-.28-.01-.54.18-.76.15-.25-.03-.51-.37-.83-.36-.34,0-1.07.78-2.02.74-.81-.04-1.31-.46-1.78-.54-1.19-.19-2.53.59-3.97-.39-.15-.1-.12-.33-.16-.36ZM693.02,257.84l-2.71.12c-.59-.54-1.13-.97-2-.94-.52.02-.81.38-1.21.42-.86.1-.63-.21-1.84.15-1.16.34-.93-.02-1.64-.26-.6-.2-1.22-.54-1.54-.64-.36-.11-1.68-.02-2.17-.04-.58-.02-2.27-.11-2.75.02-.19.05-.34.32-.65.38-.61.1-1.25-.36-1.78-.19-.21.07-.48.85-1.22.98-1.32.23-1.79-.82-2.8-.81-.4,0-.69.17-1.01.2-1.55.14-2.66.21-4.04.76-.71.29-2.36.42-3.05.14-.28-.11-.68-.61-.93-.66-.19-.04-.61.19-.97.18-.5-.01-.94-.35-1.41-.41s-.93.14-1.2.12c-.23-.02-.54-.51-.99-.51-.74,0-1.15.72-1.6.79-.68.11-1.24-.24-1.9-.2-.16.53.44,1.49.36,1.87-.01.06-.55,1.06-.6,1.1-.12.08-.38-.01-.54.04-.22.62-.05,1.11-.03,1.67,0,.18-.19.4-.15.59.02.08.43.73.49.74.44.08.91-.16,1.18-.13.15.02.35.29.78.33.89.1,2.55-.06,3.37-.45.28-.13.44-.46.67-.53.4-.12.87.06,1.27-.23l.02.57c.44-.03.79.32,1.12.4.67.16,1.22-.62,2.52-.17.22.08,0,.39.43.41.7.04.9-.44,1.41-.44s.7.44,1.4.44c.61,0,1.03-.34,1.43-.37.35-.02.86.19,1.38.16.45-.02.84-.22,1.2-.23.5,0,.69.42.99.42.36,0,.77-.49,1.21-.42.31.27,1.29.77,1.8.75.2,0,.37-.24.59-.25.36-.02,1.08.28,1.42.24.23-.02.96-.56,1.38-.51.32.07.03.8,1.19.6.17-.03.17-.36.32-.5.44-.4,2.82-.23,3.48-.11.08.01.75.82,1.43.81.29,0,.48-.37.8-.41.69-.09,2.2.33,2.99.21.41-.06.93-.66,1.44-.76.38-.08.77-.03,1.16-.05l.12.58c.84.53,1.79-.5,1.78-1.27,0-.45-.84-1.06-.95-1.43-.07-.21.1-2.05.15-2.37.06-.4.46-.49.4-.9Z"></path>
        <g>
          <path class="cls-1" d="M685.39,269.85s0,.24.16.38c.33.26,1.58.76,1.64.84.08.12,0,.39.04.55.93,0,1.75-.28,2.59.31.29.21.25.64.75.85.99.43,1.26-.12,1.92-.1.61.02,1.28.23,1.14.95.6-.38.86.1,1.09.12.19.02.48-.17.8-.13.34.04.65.49,1.09.43l.03.77c.56-.16.55.28.64.34.17.11.39.08.53.17.17.12.82,1.05.95,1.09.99.31,2.06.14,3.06,0-.02,1.11,1.28,1.31,2.18.81l.34.57c.56-.31,1.1.15,1.59.14.27,0,.52-.22.79-.23.29-.01.74.19,1.09.13-.21.67.52.61.6.91.06.22-.18.51-.09.68s.49.37.49.49c0,.07-.69,1.08-.79,1.19-.52.53-1.09.3-1.2.39-.22.17-.13.57-.23.68-.12.13-1.64.58-1.87.56-.27-.03-1.15-.73-1.11-1.12l-1.27.2-.23-.42c-.63.04-1.33.16-1.95.01-.06-.02-.61-.74-.93-.9s-.68-.05-1-.2c-.41-.2-.96-.85-1.59-1.01-.46-.12-1.44.97-2.68.28-.55-.31-.51-1.11-.87-1.37-.7-.53-1.51,0-2.33-.4-.17-.08-.15-.28-.28-.39-.83-.65-.86-.17-1.51-.24-.37-.04-1.82-.67-2.04-.97-.16-.21-.29-.75-.33-.77-.13-.09-.44.02-.64-.02-.18-.03-.11-.3-.27-.41-.59-.4-2.53-.66-2.83-1.04-.26-.32-.34-1.95-.14-2.36s.77-.61,1.05-.85c.16-.14.17-.48.46-.64.15-.08,1.11-.32,1.18-.28Z"></path>
          <path class="cls-1" d="M661.44,272.88c-.73.66-1.65,1.35-2.45,2.03-.41.34-.66,1.16-.99,1.41-.45.33-1.3.19-1.6.4-.59.39-.32.61-1.5.9-1.4.34-.7.37-1.43.77-.61.34-1.95.2-2.03.26-.04.03-.01.24-.17.37-.29.23-2.13,1.44-2.36,1.51-.66.18-1.28-.12-1.8-.12-.27,0-.54.2-.77.17-.26-.03-.51-.37-.82-.37-.15,0-.11.35-.31.5-.85.65-1.25.21-1.86.33-.45.09-.86.7-1.03.71-.1,0-1.58-.37-1.71-.44-.32-.17-.37-.62-.6-.8-.19-.15-.89.09-1.11.08-.71-.04-1.01-.63-1.37-1.11-.11-.15-.49-.2-.46-.77,0-.07.75-1.05.82-1.1.22-.17.53-.16.71-.29s.14-.49.33-.51c.2-.02.43.14.69.11.57-.07,1.49-.29,1.88-.7.21,0,.1.85.98.58.25-.08.24-.4.38-.52.66-.61,1.15-.71,2.02-.47l.32-.59c.32-.1.48.29.69.32.14.02.35-.14.56-.09.41.11.74.87,1.07-.04.4.19.95.15.88-.39l.6.4.02-.38c.57.33,2.18-.29,2.58-.73.21-.22.42-.93.81-1.19.26-.17.67,0,.61-.49.33.35,1.13.29,1.34.44.05.04.14.5.54.52.61-.34.74-1.26,1.09-1.68.32-.39,1.18-.55,1.23-1.27l.59.1c.21-.16.16-.55.29-.72.21-.27.84-.04.71-.59.38.36.77.38,1.27.17.32-.14.27-.45.37-.53.17-.12.96-.06,1.26-.39.6.34.97.66,1.19,1.33.04.14-.07.33-.04.48.05.2.31.32.31.59-.02.88-.68,1.39-1.37,1.83-.1.06-.3-.08-.36-.03Z"></path>
        </g>
      </g>
      <g>
        <path class="cls-1" d="M464.14,227.9c.49-.14.58-.78.89-1.01.57-.44.75-.6,1.31-1.09.26-.23,1.15-.93,1.4-1.01.43-.14.92.19,1.41-.08-.07,1.39.77.16,1.14.04,1.04-.32,1.69-.47,2.75-.47.21,0,.45-.18.6-.15.24.05.23.44.36.53.25.18.68,0,.86.66.81-.36,1.26-.69,2.21-.62.43.03.22.3.42.43.18.11.42.03.57.08.17.05.3.25.43.28.09.02,1.31-.59,1.76-.59l.22.43c.62-.43,1.08-.21,1.59-.24.34-.02.62-.23,1-.18s.66.52,1.11.41l-.2.6c1.08.43,2.18-.71,2.91-.81.21-.03,1.14.13,1.36.21.19.07.11.28.18.34.04.04.24-.11.46.04.57.38.59,1.1,1.4,1.21.07.44.46,1.69.21,2.02-.11.14-.42.14-.48.22-.12.18.06.55-.06.74-.11.16-1.39.83-1.67.82-.07,0-1.22-.38-1.26-.42-.09-.1-.02-.67-.33-.76-.76-.24-.39.45-.51.58-.55-.14-.92.37-1.3.42-.5.06-1.1-.34-1.19-.34-.12,0-.94.6-1.37.5-.26-.06-.61-.53-1.12-.38.09-1.33-.84.04-1.36.18-.27.07-.96-.14-1.34.05l-.22-.42c-.45.22-1.1.58-1.61.52-.15-.02-.32-.27-.59-.32-.44-.07-.97.08-1.38,0-.16-.03-.09-.3-.25-.41-1.05-.74-.95-.14-1.61.16-.93.42-1.36.04-2.24-.18l-.02-.58c-.5.45-.81.6-1.5.6-.28,0-.53-.16-.77-.15-.45.02-.96.56-1.2.52-.52-.07-1.34-.8-2.1-.61l-.83-1.37v-.4Z"></path>
        <path class="cls-1" d="M481.71,257.11c.08.06.58.93.66,1.14.22.16,1.65-.43,2.07-.39.06,0,1.03.4,1.07.45.15.16-.08.66.63.88.41.13.76-.13.78-.1.06.08.05.29.23.47.12.12.39.15.5.31.04.06.48,1.22.5,1.3.12.68.09,1.74-.6,2.03l-.16.98c.77.34.5.9.88,1.58.04.82-1.19,1.64.07,1.93-.26.53.05,1.39-.04,1.85-.03.16-.25.29-.26.42-.08.79.29,1.63-.45,2.44l.73,1.52-.16,1.02-.4.25c.12.63.14,1.94-.25,2.43-.09.12-.38.07-.52.38-.34.78-.31,1.83-.24,2.66-.72-.16-.55.34-.88.62-.39.34-1.5.48-2,.39-.16-.03-.09-.32-.25-.41-.11-.07-.9-.35-1.01-.36-.25-.02-.57.34-.91.43-.26.07-.54-.08-.74.03-.24.13-.28.44-.71.51-.76.12-1.02-.34-1.2-.35-.41-.03-.05.26-1.04-.01s-1.75.73-2.67.26c-.5-.26-.94-1.52-1.33-.5-.67.18-1.54.25-2.07-.29-.24-.24-.15-.61-.21-.68-.11-.13-2.92-.38-3.29-.06-.36-.55-.34-.63-1.07-.58l-.78-1.63c.36-.79.19-1.72.24-2.45.03-.41.37-1.36.41-1.87.05-.69-.52-1.89.32-2.13-.28-.89-.51-1.62-.17-2.55.17-.47.75-.5.57-1.42l-.42-.23c.29-.73-.27-1.24-.35-1.61-.17-.76.98-2.29.71-3.23l-.37-.15c.23-.49.12-1.28.31-1.69.11-.22.53-.46.71-.69.27-.35.34-.51.67-.91.29-.35.38-.7.85-.97.62-.36,1.14.23,1.54.15.2-.04.47-.47.78-.62.23-.11,1.09-.46,1.29-.52.42-.12.76.16,1.16.18,1.45.09,3.69.11,5.17-.06.22-.02.43-.29.65-.32.09-.01.99.17,1.04.2ZM480.12,261.51c-.88.27-1.13-.14-1.67-.24-.29-.06-2.34-.19-2.6-.12-.53.13-.72.53-1.16.76-.95.51-1.93.46-2.94.76l.39.21c-.35.47.02.84.01,1.27-.02.57-.6,1.09-.6,1.41l.42.23c.13.78.46,1.09.18,1.93-.06.17-.28.1-.38.29-.26.5-.5,1.08-.41,1.64h.59c-.19.43.04.9,0,1.29-.03.28-.51,1.54-.65,1.96-.07.23-.36.4-.36.65,0,.41,1.02,1.68.81,2.3.85-.49,1.11.07,1.53.16.2.04.49-.19.77-.17.68.05,1.34.97,1.43,1,.19.05.41-.12.58-.1.15.01.27.24.39.25.23.02.57-.4.85-.49.95-.33,1.21-.23,2.03-.14.4.04.99-.13,1.53-.11.89.05,2.14.8,2.25-.73.03-.35-.34-.61-.36-.97-.05-.79.35-3.06.8-3.76.11-.18.44-.08.41-.22-.14-.54-.72-1.56-.8-2.01-.06-.35-.23-3.07-.21-3.39s.27-.52.33-.81c.02-.12.08-1.11.07-1.17-.09-.33-.55-.27-.78-.43-.26-.18-.43-.8-.8-1l-1.49.11-.15-.36Z"></path>
        <path class="cls-1" d="M472.94,246.9l.04.55c.33-.05.71.35.87.36.38.04,1.11-.5,1.5-.64s.89-.09,1.3-.3c.15.51.4.34.7.52.83.51.77.58,1.92.49.75-.06,1.63-.02,2.2-.08.2-.02.53-.46,1-.52.65-.08,1.12.37,1.69,0v.59c.71,0,1.4.12,2.1.16.18.01.39-.14.57-.11.05,0,.86.36.89.39.1.1.17.87.61,1.06-.31.28-.35.7-.56,1.01-.17.24-.6.46-.71.69-.16.33-.04.92-.12.98-.06.05-.38.01-.57.12-.26.15-.3.43-.71.5-.54.09-1.29.16-1.42-.41-.58,0-1.17-.02-1.74-.07-.35-.03-.73-.24-1.05-.24-.67,0-1.1.77-1.85.88-.67.1-1.23-.36-1.76-.35-.45,0-1.38.69-1.82.74-.13.01-1.19-.19-1.28-.25-.19-.13-.25-.64-.48-.66s-.93.31-1.22.27c-.16-.02-.32-.32-.59-.33-.32-.01-.57.34-.83.36-.23.02-.5-.17-.77-.17-.59,0-1.04.23-1.77-.02l-1.51-2.43c.3-.28.34-.76.58-1.03.69-.74,2.05-.91,2.86-1.49.19-.14.2-.41.46-.59.39-.28.98.06,1.47,0Z"></path>
        <path class="cls-1" d="M478.53,213.33c.1.74.61.59,1.21.6v.59c.82-.27,1.62-.43,2.48-.4,1.24.04.58-.01,1.51-.3.08-.03,1.59-.06,1.73-.05.24.02.21.42.33.51.28.21,1.68.32,2.05.03.11.55.62.35.82.61.11.14.1.42.21.59s.47.43.47.51c0,.07-.34.37-.43.56-.21.46-.01.44-.43,1.15-.11.18-.11.43-.22.58-.39.53-1.31.67-1.91.5-.42-.12-.59-.54-.93-.65-.2-.07-1.15-.25-1.36-.26-.48,0-1.37.86-2.2.99-.97.15-1.28-.29-1.82-.96-.56.39-1.1.3-1.74.44-.29.06-.52.34-.84.34-.39,0-1.01-.39-1.38-.35-.33.04-.61.46-.82.48-.12.01-1-.09-1.18-.12-.17-.03-.07-.33-.26-.4-.89-.31-1.55-.02-2.27-.09-.61-.06-1.16-.47-1.77-.54.05-.69-.68-1.16-.8-1.7s.07-1.07-.18-1.57l.14-.19c.99-.59,1.61-.99,2.8-.69v.59c.74-.49,1.42-.03,2.11.01.5.03.94-.22,1.39,0l.12-.59c.78.18,1.19-.51,1.89-.32.46.13.56.48,1.28.12Z"></path>
        <path class="cls-1" d="M477.5,236.35c.07.05,0,.3.17.34.62.16,1.93.29,2.53.15.26-.06.48-.29.69-.33.29-.05.55.18.74.14.21-.04.36-.42.66-.53.92-.33,1.3.17,1.53.14.18-.02.41-.27.68-.33.76-.17,2.01-.22,2.65.26.13.1.16.31.28.42s.65.47.68.51c.13.21-.04.52.09.72.03.05.25.02.36.17.55.74-.08.62-.15.71-.18.23.05.89-.66,1.25-.21.11-1.47.48-1.71.5-.36.04-.99-.16-1.09-.1-.41.23-.23.86-1.31.9-.83.03-1.22-.44-2.33-.14-.79.21-.47.12-1.24.15-.51.02-1.3.28-1.8.2-.15-.02-.1-.29-.17-.35-.05-.04-1.02-.63-1.08-.64-.25-.06-.49.14-.74.13-.26-.02-.54-.26-.83-.27-2.03-.04-3.99-.14-6-.49-1.24-.22-1.25-1.46-1.11-2.5.06-.39,1.19-.89,1.61-1.01.25-.07.48.07.74-.04s.44-.43.77-.46c.27-.02,1.52.17,1.3.61.52-.42.99-.79,1.7-.81.28,0,2.93.57,3.05.67Z"></path>
      </g>
    </g>
  </g>
  <g id="knDOCF">
    <g>
      <path class="cls-1" d="M1052.47,233.13c-.47.19-.43.97-.63,1.13-.56.47-1.5.43-2.03.7-.6.3-1.31,1.05-2.04,1.3l-.19-.4c-1,.57-1.97-.01-2.83-.13-1.67-.22-3.26-.42-4.83-.63-.48-.07-1.07-.59-1.56-.72-.92.79-1.16,1.09-2.44.99-.35-.03-1.63-.49-1.97-.53-.31-.03-1.5.78-2.06.82-1.02.06-1.09-.82-1.68-.87-.42-.03-.67.35-1.05.42-.85.16-1.9-.53-2.81-.62-.49.9.75,1.74.77,1.98,0,.11-.34.89-.21,1.53.12.6.48.94.51,1.6.02.57-.55.54-.6,1.29-.04.56.2,1.41.14,2.02-.03.32-.36.53-.38.84-.05.69.65,1.73.19,2.62l.53-.19.2.41c1.05-.7,1.35-.34,2.41-.34l.92,1.37c.98-.68,1.7-1.04,2.9-1.05l.22.41c.95-.57,2.01-.21,2.35.85,1.86.61,4.11-.74,5.77.21.14.08.16.37.18.38.1.04.64-.25,1.07-.17.14.03.16.32.32.39.73.33,1.27.45,2.09.48.23.7.86,1.52.63,2.31-.09.32-.54.42-.55.83-.03,1.18,1.1,1.47,1.14,1.7-.21.79-.08,2.22-1.13,2.25l-.17.47c.43,1.64,1.61,2.56.91,4.45l-.71.23c-.85.82.2,1.64.31,2.43.1.69-.2,1.21-.16,1.66.03.48.49,1.38.38,1.83-.04.15-.94,1.74-.96,2.34,0,.11.22.28.25.45.04.23-.15.51-.03.69.23.35.89.66.93,1.56.02.43-.33,1.05-.18,1.58h-.82c-.39,1.24.69,2.37-.29,3.48-.36.4-2.68,1.05-3.22,1.05-.26,0-.44-.28-.58-.28-.22,0-1.07.69-1.46.67-.72-.03-2.59-1.36-3.76-.53l-.22-.43c-.66.77-1.35.32-2.04.46-.51.1-.9.58-1.35.72-.56.17-3.12-.38-3.67-.55-.2-.06-.22-.58-.67-.53-.92.1-1.17,1.35-2.54,1.38l-.38-.42c-.84.61-1.74.41-2.51-.21-2.08.49-4.1.64-6.27.65-1.64,0-1.57-.17-3.19.38-.79.27-1.81.05-2.61-.2-.19-.06-.16-.41-.26-.42-.46-.02-.95.71-1.45.75-.81.08-1.39-.55-1.99-.66-1.05-.21-2.47.44-2.94-1.33-.93.81-1.83.54-2.93.33-.19-.13-.54-1.57-.68-1.94-.05-.12-.43-.13-.49-.36-.02-.07-.08-1.38-.08-1.45.05-.43.61-1.06.72-1.69.14-.82-.38-1.9.09-2.72l-.46-.35c-.15-1.32.16-2.22.65-3.41l-.6-.44c.1-1.57.48-3.26.62-4.78.11-1.16.18-1.04.35-1.85.21-1.04-.51-2.01.72-2.93l-.99-.65c-.07-.17.13-3.43.2-3.68.08-.28.42-.51.49-.77.19-.71,0-1.43.55-2.07l2.46.39.03-.81c.81.1.9-.77,1.23-.96.13-.08,1.15-.36,1.46-.45,1.23-.35,1.95-.35,3.15-.39.94-.03,2.07-1.37,3.02.11,1.27-1.09,1.93-.13,3.12,0,1,.1,2.05-.29,2.93-.38.38-.04,1.56.18,1.78.07l.62-1.14-1.05-.57c.26-.91.09-1.82,1.05-2.27v-.41c-.81-.19-.16-.68-.2-1.25-.04-.68-.42-1.46-.42-2.09,0-.98.81-1.36.44-2.5-.36-1.1-1.09-.67-1.54-.77-.56-.13-1.02-.57-1.73-.59-.88-.02-1.89.37-2.93.23-.39-.05-.27-.39-.44-.43-1.34-.3-3.07.08-4.35-.62-1.73,1.05-3.28,1.09-5.2.97-.26-.02-.54-.33-.88-.36-.58-.05-1.1.55-1.79.52-.77-.04-1.76-.7-2.19-.73-.47-.04-.71.45-1.41.42-1.1-.06-1.76-.59-2.33-1.46v-2.92s1.41-.69,1.41-.69l2.66.7.05-.57,1.61-.8,1.08.21.31.75c.76-.33,1.72,0,2.4-.12,1.04-.19,1.74-.72,3.01-.48l.48.59c1.43.29,3.02-.54,4.23-.53.32,0,1.45.47,1.74.46,1.11-.03,1.34-1.04,2.87-.22.14.08.16.47.34.5.44.08,1.59-.71,2.38-.31.87-1.28.47-2.89.49-4.37,0-.35.3-.68.3-1.07.02-1.15-.64-2.54-.03-3.66.07-.14.43-.15.49-.36.11-.39.03-2.35-.16-2.73-.18-.36-.59-.41-.64-.5s.08-1.72.16-1.88c.15-.29.92-.35.53-.79l-1.47-.74c-1.02,1-1.67.27-2.5.21-.69-.05-2.16.46-2.68.48-.55.02-1.21-.58-1.51-.57-.28,0-.47.35-.79.36-.74.02-1.39.03-2.12.06-1.96.08-3.84-.23-5.69-.39-.25-.02-.5.31-.81.37-1.23.22-1.11-.36-1.28-.4-.45-.1-.87.04-1.47-.16-.22-.07-1.82-1.09-1.9-1.23l-.39-1.65c.93-.77,1.55-1.92,2.97-1.72,1.56.22,2.97.64,4.6.7,1.14.04,1.66-.12,2.92-.02.89.07,1.64-.24,2.11-.25,1.46-.03,2.96.56,3.98-.83l2.86-.07c.31.78.7.24,1.26.28.96.07.99.95,1.48.97,1.15-.55,2.23-.69,3.46-.94.35-.07.72.07,1.05.02.4-.06.95-.5,1.41-.51.33,0,.61.88,1.39.81l1.69-1.25.43.63c.88-.38,1.71-.41,2.59,0l.09-1.06c.54.05,1.04-.59,1.1-.6.37-.08.82.06,1.2-.01.43-.08.66-.48,1.04-.53.66-.07,1.35.41,1.69.44.14.01,2.33-.26,2.73-.31.37-.05.27-.37.46-.42.72-.18,2.17-.51,2.71.05.09.09.03.36.12.48.13.17.48.2.53.4.05.24-.32.98,0,1.43-1,.34-1.08,1.54-1.43,1.89-.13.13-2.95,1.33-3.18,1.32-.58-.04-1.04-.46-1.52-.55-.07-.01-1.27-.03-1.32,0-.26.18-.49,1.16-1.57,1.02-1.06-1.46-1.96,1.05-2.96,1.24-1.08.2-1.78-.57-2.46-.57-.21,0-2.04.55-2.45.66-.8.23-1.28.9-2.38.35l-.22.18c-.55.7.11,2.49.22,3.23.06.42-.02,1.6.14,2.04.14.39.55.59.7,1.18.28,1.13.24,1.56-.67,2.2l.36,1.89-.65.82c.45.96,1.09,2.46-.09,3.04l-.1.31,1.14.86c.55-.33,1.34-.21,1.84-.38.34-.12.47-.54.88-.58.15-.01,1.26.21,1.31.26l.37.77c1.44-.44,3.16-.21,4.57-.41.61-.09,1.61-.67,2.32-.64.11,0,1.3.63,1.87.67.64.04,1.88-.33,2.46-.22.1.02,1.03,1.01,1.3,1.06.81.12.67-.33.9-.43.74-.33,2.16.25,3.04.02l.47.61,1.42-.44.3.42c.93-.14.54.3.74.56.11.14.37.17.44.3.23.4.09.95.54,1.24v.21ZM1010.39,252.62c-1.19-.48-1.49-.66-2.74.04l-1.36-.75c.48,1.29-.79,1.8-.83,2.91l.83.23c0,1.27-.11,2.59-.11,3.86,0,.24.29.5.3.82,0,.37-.48,1.45-.39,1.57l.84.22c-.08,1.75-1.42,3.33-1.25,5.09.03.33.28.56.3.97.06,1.07-.49.95-.63,1.42-.48,1.52.3,1.83.54,3.24l-.43.22.22,1.98c.83-.73,2.13.35,2.61.35.25,0,1.36-.81,1.93-.92s1.14.26,1.53.25c1.16-.03,2.12-.72,3.23.25,1.32-1.21,1.97.17,3.3.21,1.02.03,2.25-.51,2.99-.55.51-.03.95.25,1.45.21,1.9-.16,3.84-.32,5.43-1.46.72.17,1.87.16,1.99,1.04h.2c-.19-.54,1.37-.81,1.59-.78.09.02.43.8,1.47.77.61-.23.4-.72,1.25-.81,1.48-.17,1.57.63,1.66.62.38-.02,1.57-.66,2.09-.65.47,0,.85.46,1.35.45l.12.82.9-.24c.02-.99.09-2.01.02-3-.1-1.32-.99-2.58.6-3.46-.84-1.66.35-2.58-.23-4.19-.15-.42-.56-.44-.56-1.07,0-.33.23-.84.31-1.19l.9-.75c.02-.39-.71-1.86-.78-2.27-.18-.97.25-1.98.16-2.91-.06-.65-.64-1,0-2.05l-.37-.46c-.88.16-1.79.35-2.67.47-.75.11-1.43.36-1.85.41-.99.11-2.72-1-3.57-1.15-.29-.05-.56.3-.96.31-.72.02-1.41-.57-1.92-.58-1.17-.03-1.13,1.37-2.71,1.26-.94-.07-2.4-.88-3.74-.41l-.24-.42-1.85.64-1.3-1.06c-.89.59-1.72.26-2.69.02-.53.64-1.62,1.32-2.5,1.01-.35-.83-1.56-.58-2.45-.47-.29.03-.6.29-1.14.32-.83.04-.68-.3-.81-.35Z"></path>
      <path class="cls-1" d="M848.44,206.76c.04.75,1.15.85,1.29,1.17.04.1.53,1.72.56,1.89.19.91-.22,2.19-.57,3.06l.94.52c.28,1.14.1,1.98-.73,2.83.8.36,1.27,2.53.32,2.81-.61,1,.49,1.84.66,2.44.08.26-.1,1.15.06,1.53l-.41-.21c.04.88.53,1.4.36,2.34-.06.3-.63.56-.15.9l5.13-.45.42.77,2.06-.43c.55,1.1,1.66.27,2.28.26.12,0,1.92.32,2.32.38.8.12,1.53.47,2.41.39l.03-.59c.64.13,1.26-.36,1.77-.38.36-.01,2.04.3,2.07.76,1.27-.84,3.18-.86,4.77-.77,1.03.06,1.58,1.07,2.15,1.12.2.02,1.21-.48,1.73-.09-.1.56.64.78.67.94.06.29-.26.89.19,1.4-.7.38-1.01,1.32-1.72,1.63-.64.28-1.27-.1-1.82.05-.71.19-1.96,1.26-2.82,1.48-1.04-.21-1.21-.33-1.97-1.08-.86.33-2.96.7-3.82.32-.17-.08-.17-.41-.28-.42-.42-.04-.63.35-.98.37-.79.05-1.46-.76-2.15-.39l-.51-.39c-.1.77-.95,1.02-1.56,1.26l-.21-.38-2.48.38-2.14-1.47-.5.1c-.65,1-2.45.85-3.44.51-.57-.2-.75-.72-1.37-.61l-.04.59-.56.06c-.39.79.4,1.6.38,2.15-.01.54-.46.92-.56,1.34-.12.48-.55,2.49-.38,2.75.11.17.48.21.62.43.5.79.51,1.99.52,2.9h-.46c-.64.58.38.76.45.87s-.15.42-.12.66c.03.19.29.31.25.56s-.54,1.61-.95,1.46l.39.55c-.64.91.08,1.64.24,2.57.59-.5,1.86-.87,2.62-.85.69.02.83.65,1.24.64.33,0,.61-.43.94-.53.66-.21,1.32.23,1.57.24s.53-.31,1.01-.32c.65,0,1.2.23,1.5.79,1.22-.23,1.74-.96,3.1-.82l.88,1.48,2.66-.63c.88,1.02,2.07,1.29,3.37.86.49.69,1.46.87,1.52,1.91.01.18-.18,1.5-.25,1.61-.09.15-.43.22-.61.45-.12.15-.06.42-.27.61-.04.04-.98.54-1.03.55-.61.11-1.64-.56-1.81-.53-.54.09-.82.72-2.02.51-1.07-.19-.91-.66-1.3-.82-1.74-.72-5.24.13-6.29-.54-.2-.13-.27-.59-.45-.6-.15-.01-.48.28-.73.3-1.16.09-2.5-.07-3.46.72l-.4-.44-1.78.24.56,3.65-.8.44c-.85,1.12.63,2.17.65,2.3.04.37-.12,2.98-.23,3.25-.23.57-.7,1.38-.84,2.14-.24,1.29.27,1.79.43,2.73.12.71-.79,3.79-1.05,4.73-.04.13-.78.57-.4,1.41.96-.68,2.2.65,2.82.65.53,0,1.21-.62,2.07-.63.38,0,.92.26,1.36.21l.02.6,2.2-.44,1.45,1.01c.92-.67,1.3-.51,2.18-.02.16.09.18.39.33.45s2.41-.04,2.88-.04c1.91,0,4.16.2,5.74-.53.34-.16,1.5-.74,1.7-.76.29-.03,1.1.58,1.68.34v.61c1.01-1.03,2.29-.69,3.04.42l1.14-.76c1.69-.4,2.29,1.22,3.77,1.49.64.82.64,1.77.59,2.77-1.53,1.64-2.96.66-4.6.91-.51.08-.99.52-1.48.53-1.27.02-3.06-.66-4.2-1.19-.6.05-.81.65-1.13.82-.56.31-2.41.34-3.06.22-2.38-.44-4.63.15-7.11.18-.76,0-1.59-.27-2.51-.17-1.38.15-2.52,1.02-3.8-.41-.96-.21-1.12.58-1.61.61-.11,0-1.47-.2-1.54-.24-.1-.06-.17-.43-.35-.58-.78-.68-2.12-.13-3.11-.2l-.26-.43c-.93,0-1.34,1.19-2.15,1.36-.48.1-1.2-.27-1.64-.25-.31.01-.5.3-.8.35-1.43.23-1.38-.84-1.87-.76-.31.04-1.01.97-1.09.98-.31.06-1.14-.18-1.59.01l-.49-.61c-1.32-.44-3.05,1.05-3.73,1.03-.05,0-.05-.19-.69-.37-.71-.2-2.17-.76-2.71-.87-.58-.11-1.18.37-1.78.13l-1.41-1.2c-.34,2.11-2.15.97-3.62,1.05l-.67-.64c-1.44.39-2.45,1.11-3.38-.62-1.61.26-3.36-.51-4.97-.82l-.69-1.99,1.75-1.76c1.05.53,1.94-.34,2.94-.57.64-.02,1.21.74,1.73.9.19.06,2.13.47,2.24.47.29,0,.5-.33.81-.36.99-.08,2.29.35,3.11.33.72-.02,1.47-.72,1.89-.68.19.02.42.31.84.35.81.06,1.99-.33,2.9-.03l.13.64c1.2-.71,2.53-.47,3.03.83.73-.29,1.43-.65,2.14-.98.25-.12.23-.42.4-.46.25-.06.8.16,1.21-.24l.32.53.74.13,1.09-.81c1.02-.24,1.67.54,2.68-.03.02-1.03.43-1.84.74-2.78.06-.17.34-.15.39-.32.16-.56.01-1.4.44-2.02l-1.04-.66c.37-1.23.56-2.5.8-3.76.05-.25-.16-.55-.13-.78.06-.5.87-2.2.96-2.98.04-.32-.44-.5-.55-.96-.12-.52.55-2.01.79-2.55l-.99-1.48.36-2.69-.43-.22-1.51.34-.45-.42c-.21.17-.26.47-.47.63-1.57,1.13-1.88-.04-2.63.03-.33.03-.61.48-.9.53-.42.07-1.65-.17-1.54-.78-.72.82-1.46.16-2.14.25-1,.13-.76.74-2.39.11-.07-.03-.08-.38-.46-.48-1.71-.47-4.17.16-5.75-.89l-2.47.78-1.54-1.31.45-2.62c1.44-1.25,3.45-.99,5.22-1.05l.11.64c.81-.37,1.53,0,2.18-.01.82-.03,1.17-.72,1.69-.82.65-.12,3.4.15,3.87.53.2.16.09.57.41.51l.12-.64c1.19.11,1.7-.82,2.8.22.24-1.13,2.09-.62,2.8-.69.66-.06,1.31-.87,2.12-.15l1.32-1.95-1.23-1.71.65-3.53-.66-.23c.22-.82-.23-1.73-.19-2.47.09-1.53.96-.93,1.14-1.16.78-1.01-.05-3.19-.64-4.18l-.39-.25c-.95-.07-2.37.06-2.42-1.22-.79.86-1.62.49-2.3.71-.43.14-.67.69-1.09.7-.37,0-2.84-.41-3.21-.54s-.28-.51-.83-.59c-.68-.09-2.56.09-3.28.21-.45.08-.75.54-1.48.53-1.5-.02-1.5-1.23-1.7-1.23-.85,1.03-1.24.85-2.3.83-.27,0-.6.21-.7.17-.02,0-.01-.33-.28-.45-.35-.15-2.03-.45-2.34-.37l-.52,1.34c-2.01.37-1.23,1.72-1.32,3.22-1.25,1-2.6.54-3.34,2.19-.13.29-.1.81-.21.94-.04.04-.96.55-1.01.57-.14.06-2.79.04-3.03,0-.45-.06-.88-.54-1.42-.52l-.35-1.56c.13-1.07,1.25-1.21,1.42-1.41.14-.16.02-.76.32-1.15.32-.42,1.19-.54,1.41-.76.71-.7.57-.8,1.56-1.59,1.18-.95.66-1.55,1.14-2.36.33-.56,1.85-2.13,2.1-2.6.31-.6.32-1.86.91-2.49l1.78-.52c.28-.25.6-1.97.6-2.41,0-.29-.3-.45-.31-.74,0-.47.32-1.13.14-1.7l1.65-.84c-.1-.6-.23-1.41-.08-2,.09-.34.92-.84,1.12-1.39.18-.51.2-1.49.42-2.08.12-.33.58-.57.63-.82.09-.5-.39-1.54.3-2.33,1.49.27,1.62-.86,2.42-1.24.54-.25,1.22-.46,1.47.14l.63.05c0,.51.48.8.6,1.15.3.87-.84,3.55-.97,4.57-.2,1.51.31,1.06-.59,2.74-.22.42-.57,1.2-.73,1.46-.13.21-.96.51-1.14.75-.2.28-.06.71-.2.98-1.06,2.04-.72,1.76-1.13,3.83-.1.49-.46.86-.4,1.38l1,.06.8.99c.92-.53,2.02.12,2.91-.04.57-.11,1.43-.74,1.89-.79.07,0,1.37.01,1.44.03.24.06.25.43.39.52.82.53,1.3-.16,2.13-.16.95,0,2.26.27,3.14.64.87-.64,1.35-.86,2.46-.83l1.09.96,1.73-1c.52-.93.28-1.87.26-2.77-.03-1.46-.07-.82-.37-1.93-.21-.77.24-2.11.99-2.45-1.97-1.27-.75-2.01-.53-3.62.25-1.83-.15-3.91-.22-5.6-.03-.83.09-1.44.6-2.1l2-.23Z"></path>
      <path class="cls-1" d="M991.72,252.88c.24.15.6-.02.75.1.05.04.58,1.08.6,1.14.02.08.19,1.51.2,1.67.05,1.03-1.19,1.61-1.9,2.17l-.36,2.25-2.2,1.32c.1.59-.1,1.89-.47,2.32-.21.24-.62.16-.87.44s-1.46,1.97-1.66,2.1c-.15.1-1.29.07-1.62.56l-.49,2.42c-.44-.19-.56.23-.82.34-.5.2-1.1.09-1.67.63-.45.43-.49,1.72-1.24,2.09-.38.19-.8.07-1.24.23-.7.26-.87,1.27-2.1,1.03-.56,1.13-1.52,1.37-2.1,2.5-1.59.21-3.28.68-4.17-1.04.42-.65-.02-1.67.05-2.06.01-.07.73-1.23.78-1.29.39-.43,2.11-.8,2.73-.83l.68-1.5,1.62-.36c.28-.19.14-.83.3-1.16.38-.77,1.49-.74,1.9-1.02.57-.39.58-1.8,1.55-1.27-.17-.83.15-1.09.71-1.6.11-.1.43-.03.49-.11.14-.17.1-1,.58-1.43l1.3-.46.58-1.82c.41-.36.98-.32,1.45-.63.66-.44.56-1.32,1.57-1.05-.25-.78-.22-1.86.33-2.5.17-.21.45-.05.62-.19.77-.65,1.76-2.22,2.88-2.86.3-.17.84-.05,1.08-.49l.15.36Z"></path>
      <path class="cls-1" d="M978.84,229.25c.07.04.06.34.2.34.59-.18,1.4-.56,2.03-.43.18.04.14.44.55.55.72.18,1.82-.03,2.59.49.29.2.05.55.2.78.73,1.13,1.5.24,2.3.68.12.07.15.31.3.43s.48.1.63.26c.16.18.09.68.47.9l.47.05c.52-.72,2.3-.14,2.07.64l1.45.34c.04.8.66.59,1.02,1.46.46,1.14.19,1.75.12,2.82-1.59.69-2.17,1.02-3.79.2-.57-.28-.42-.66-1.28-.79-.77-.12-1.64-.2-2.26.36l-1.05-.62-.5-1.73c-.43-.38-1.03-.68-1.61-.77s-.82.08-1.61-.41c-.2-.12-.23-.55-.44-.58s-.62.2-1.04.15c-.38-.05-.67-.38-1.05-.39-.26-.01-.55.22-.82.19-.13-.01-.13-.33-.29-.41-1.51-.74-1.54-1.19-2.56-2.4-.75-.9-.42-2.24.34-3.02l.55-.16c1.24.06,1.98.47,3,1.06Z"></path>
      <path class="cls-1" d="M981.63,206.86l.66,1.42,1.14-.12c.36.66.94.71,1.58,1.01.15.07.16.31.34.37.37.13,1.36.05,1.51.14.61.39.96,1.25,1.07,1.94l1.21.05.14.62,2.56,1.05.03.8c1.48-.17,1.97.42,2.26,1.73l-.62,2.4-2.85.84-1.24-1.22-2.17-1.13-.02-1.12c-.82-.8-1.51-.22-2.14-.25-.11,0-.09-.3-.29-.4s-.52.02-.78-.22c-.23-.22-.73-1.33-1.21-1.61-.33-.19-.87-.1-1.24-.28-.23-.11-.78-.95-.85-.98-.32-.13-.65.02-.94-.11-.43-.2-.8-1.57-1.88-1.25l-2.26-2.44c.23-.92.73-1.58,1.68-1.81,1.4.84,2.74.73,4.28.55Z"></path>
    </g>
  </g>
  <g id="FN6RLS">
    <g>
      <g>
        <g>
          <path class="cls-1" d="M358.5,317.04l-.82.31v3.17s-1.28-.43-1.28-.43l-.86,3.44h1.29s0,3.44,0,3.44l-1.25.03-.41,1.05,1.14,1.27c-1.18,2.08-1.27,3.87-.72,6.2l1.68.48-.41.82.72.12c.59,1.01.78,1.87.12,2.9.65-.13,1.14.72,1.48.73.25.01.59-.27.86-.24.64.09,1.23.4,1.88.45l.47,1.65-.84.44,2.1.48c-.02,2.5,3.2,3.79,5.36,4.25l.34.8c.97-.42,1.66.23,2.3.93l.85-1.27,2.09.79c1.03-1.24,2.11-.38,3.48-.8l.47.43-.23.83c1.73.02,3.2,1.63,4.73.23.51-.46.33-1.28,1.58-1.44.78-.1,1.27.45,1.98.32.77-.14,2.01-1.16,3.11-1.25.87-.07,1.71.46,2.07.38.58-.13,1.5-1.37,2.85-.8v1.72c1.22-.87,2.24.24,3.62-.02l.46.88c1.58-.63.98-2.2,2.98-1.26l.32-.8,1.45-.53.43.88c.77.13,1.45-.26,2.15-.44s.81-.75,1.48.2l-2.18.86-.6,1.43c-1.18-.67-2.64.51-2.84,1.76l-2.54-.39c.19,1.3-1.03,1.95-1.53,3.03h-1.25s-.25-.86-.25-.86l-.62-.02c-1.26,1.76-3.1,1.89-3.69-.39l-2.54.39c-.04.67.83.48,1.31,1.05.91,1.07.05,3.3-1.08,4-1.01.02-2.46-1.04-3.09-1.14-.38-.06-2.25,1.54-3.79.36l-.47.91h-1.88c-.28,1.75-.93,2.16-2.64,2.32l-.62,1.1c-1.59,0-.48-1.53-.68-1.68l-.79-.08.39-1.68h-1.29c-.24,1.76.76,3.06,0,4.72l1.72.64c-.48.82-1.47,1.13-2.04,1.63-.25.22.08,1.1-1.4.73.38,1.1.61,2.59-.83,2.61l.39,1.67-.84.23.8.26.06,2.54h1.72s.43,2.58.43,2.58c-.14.17-1.06-1.09-.86.22.14.95,1.07,1.71.86,2.79,1.69-.57,2.81-.31,3.69,1.26,1.22-.56,2.54-.09,3.42.88l-.65,3.41,1.1.44c.25.31-.82,1.6.39,2.16l1.07-.86-.43,3.01c1.21.34.72-.72,1.26-1.09.44-.29,1.13-.16,1.54-.61l.71,1.2,1.15.14.07.78,1.29-.86.05.78,1.24.08-.86,2.14c1.89.51,3.47.33,5.14,1.52s1.63,2.31,2.36,4.08l1.49.44.22,1.71c.42.63,1.97.09,2.6,1.26.13.25-.12.61.01.86.63,1.18,2.33.67,3.23,1.49l.45,1.49,2.48.52.06,1.65c1.38-.26,2.86.65,3.01,2.15-1.25.62-1.75.16-2.8.05-.32-.03-.64.32-1.06.16-.27-.1-.69-.7-1.23-.71l-.07-1.2c-2.66.63-2.92-2.39-5.58-1.73v-.86s.87-.21.87-.21l-.42-1.31c-.97.22-2.56-.9-2.79-.92-1-.08-2.71.84-4.03-.21l-.5-2.07c-.91-.35-2.03,1.72-2.36,1.72l-1.12-1.67-2.48-.1-.69-1.24-1.07.86c.36-1.45-.44-1.11-.73-1.42-1.19-1.28-1.46-.74-2.3-1.37-.36-.27-.26-.83-.68-1.1-1.46-.93-5.12.2-5.72-1.95l-1.33.07c-.42-.32-.25-1.34-1.25-1.14l.41-1.26c-1.56-.5-3.59,1.21-4.88.81-1.76-.54-1.36-3.22-2.64-4.25l-.67,1.69-3.01.27c-.61-.45.15-1.36-1.48-1.96-1.06-.39-.47,1.02-.64,1.29l-2.55-.45c-.48-.46,1.13-3.69-.88-3.42v-.64s1.29-.65,1.29-.65l-.64-.85c-.71,1-1.59.5-2.15.59-.48.09-1.07.94-1.91.71l-.02,1.7-1.7-.02c-.26-.91-.5-1.33.22-2.12l-.45-.87-2.37.43c-.51.49,2.32,3.98-1.06,3.46l-.46-.91-2.58.77-1.77-1.1c-1.39.51-3.55.22-4.69,1.19-.44.37-.43,1.01-.89,1.34-1.38,1-3.58.88-5.02,1.34-.59.19-.82,1.02-1.75.75-.84-.64-1.17-1.53-2.41-1.26.15,2.54-1.62,4.68-3.87,2.58l.86,2.58-3.01-.86-.86,2.36c.62.86.89.63,1.71.21l-.18,2.15c-.56.73-1.83.64-2.4,1.06-.38.28-.46.93-.86,1.29-.77.7-2.01.7-3.01.65-.27,1.37.54,1.53,1.52,2.13.86,1.8-2.13,1.79-1.96,3.88l-1.72-.65.81-1.72-.8-.87c-1.57-.25-2.65.85-1.93,2.38.7,1.48,1.25,1.99,2.79,1.29v1.29c-.92-.62-1.44.29-2.37.42-.88.13-1.88-.08-2.79,0l1.29,1.5-1.07,1.04c-2.81-1.35-2.07-3.82-2.36-6.4l1.94.44c1.64.05.92-2.95,2.35-2.59v-.21c-.87-.79-1.78-1.72-1.72-3,.63-1.03,1.19-.08,2.15-.22-1.03-2.96.84-3.66,3.42-4.32.02-1.9-1.07-4.09,1.29-4.74-1-2.45-.68-5.86,2.6-5.55-.25-1.13-.88-1.31-1.72-1.93.6-.85.91-.63,1.71-.21.55-2.01.28-3.83-.42-5.79l.64-.55,1.92-.12v-1.68c-3.24-.28-1.32-2.44.01-3.89-2.9-.74-2.3-5.35-2.77-7.75l-1.94-.43-.08-1.2-1.23-.71.86-1.07c-1.07.2-1.07-.89-1.4-1.18-.71-.64-1.93-1.12-2.9-.97-.14-.12.32-3.26-1.23-3.06l.18-.81-1.95-1.1.41-1.04h-2.58c.76-1.11,1.54-1.97,1.29-3.44l-1.5.88c-.95,0-3.99-2.02-4.28-2.03-.67-.04-1.76.95-2.33-.4l-.47-2.11-2.59.03c-.67-.76-1.47-1.41-2.15-2.16-.86-.95-.57-1.74-2.52-1.59l-.31-.8-1.04.26c-.68-.56-1.01-1.03-.85-1.95l5.3.5c1.76.67,2.83,2.43,4.76,2.53l.49-.91,1.89.04.19,2.14c.29.42,2,1.24,2.4.64-.74-.72-1.53-1.19-1.29-2.36l1.12-.4c1.04-.2,1.16,1.42,1.03,2.12.85-.1,1.43-.5,2.36-.46s1.61.58,2.33.68c.47.07.89-.24,1.43-.16,1.02.16,2.1,1.11,3.33.79.02-.79-.26-2.76.65-3.01.39-.11,1.11.65,1.69.88.83.33,3.12.61,3.41.81.36.24.3.52.26.89l1.29-1.72h.85s.26.88.26.88c1.54,0,3.63.45,5.04.31,1.77-.18,3.68-.42,3.77-2.44,1.62.07,2.16-1.12,3.83-.47-.36-1.79,1.33-2.66,1.77-4.25l1.41-.02.33-.8,1.17-.12c.1-3.14,3.51-4.97,3.24-8.14l1.47-.48.49-2.08c-.18-.18-1.83-.09-1.72-.86l1.66-.04c.5-1.16,1.22-2.87,2.63-2.97l-1.28-.89.63-2.56,1.94-1.07c.41-1.46-2.14-3.11-.04-3.26l.06-2.94,1.27-.02c.52-.4-1.78-.43-.43-1.08.65-.31,2.11-.31,2.51-.71.54-.54.95-3.71.96-4.63,1.14.16,1.59-1.08,2.55-.45l-.43-2.15,1.72-.43-.86-2.15,2.1,1.55c.16.81-1.09,2.8-1.17,3.45-.05.43.38.78.18,1.45-.27.87-1.46,2-1.93,2.84l.84,2.09-1.31,1.71c.53.57,1.17.89,1.29,1.71.27,1.75-1.21,2.63-.49,4.47ZM339.59,351.51l-1.44-.08-.46.91-1.69-.46-.54.64-.18,2.3c-1.03.15-1.13.83-1.65,1.56l1.23.7c.04,2.71,1.7,4.29,4.36,3.38l-.43-2.57c2.42-.14,3.23-.65,2.99-3.21-.02-.26-.39-1.84-.47-1.9-.16-.15-.86.02-1.26-.25-.37-.25-.3-.85-.46-1.04ZM356.44,358.71l.34-1.4c-.7-.91-2.46-4.08-3.84-3.09-1.64,1.74-2.23,5.8.62,6.22l.45.87,3.21-1.31-.04-1.2-.75-.09Z"></path>
          <path class="cls-1" d="M309.14,412.01l-1.42,2.04c-1.34.12-.41,2.33-1.95,2.3-.41.58.6,2.03-.93,1.67-.41-1.92-.15-2.78,1.09-4.3.27-.33.74-.32.95-.54.63-.61.34-1.61,2.25-1.18Z"></path>
          <path class="cls-1" d="M362.05,295.13l.8.27c-1.04,1-.33,2.4-1.94,2.74l-1.03-1.09c.06-1.47.5-2.57,1.9-3.15l.28,1.23Z"></path>
        </g>
        <g>
          <path class="cls-1" d="M362.1,176.53l.75.32c-.28.3-.54.67-.66,1.06-.71,2.15-1.64,3.91-2.44,6.15-.17.49-.79.79-.79,1.38,0,.79,1.59,1.44.68,3.23-.68,1.34-3.55,2.46.61,3.45l.02,1.69-1.72-.43-.86,3.01,1.26.03.35,1.49-1.16,1.27.84,1.07c-1.6-.19-.9,1.54-1.06,2.18-.14.54-.82.97-.66,1.69,1.74.08,3.12.52,4.7,1.28l.43-1.09,1.32-.19-1.29-1.07,1.07-1.07c.79.55.7,1.29.65,2.15.86-.52,1.29-.52,2.15,0l.41-2.38,2.12-.24.69-1.24,1.03.05c.01.87,0,.92.9.81-.14-.71.16-.92.83-.9l-.4-1.68c.36.12,2.07.11,2.17.19.49.42.42,1.51,1.89,1.55l1.81-2.14,1.83.36.11-.73,1.14-.17.12-.72c1.32.9,1.62-1.02,2.92-.07.11-1.19,1.31-1.7,2.4-1.69l.29,1.23.78.07c.1,1.31-1.55,1.93-1.75,2.95-1.55-.95-2.75,1.1-3.48,1.67-.32.25-2.28.78-2.91,1.17-.52.33-.89,1.07-1.29,1.29s-1.82-.84-2.16.63l1.72.65-.84,1.74-1.71.22-.68,1.69c-1.23.07-1.42-1.15-2.79-.43l1.29,1.72-2.15-.86-.43,1.52-1.29-.23.43,1.29c-1.63.56-3.77,1.03-4.55,2.6-1.52-.35-2.39.39-2.98,1.72-.24.53.15.9,0,1.27-.27.68-1.49,1.44-1.01,2.53l.7.12c-.14,1.81,2.12,1.46,1.46,2.87l.75.09-.39,2.97c.76-.04,2.83.11,3.35.54.11.09.06.45.22.61s.52.11.61.23c.28.35.85,2.25,1.2,2.9s1.39.97,1.06,2.16l1.5-.89c1.03.08,2.19,1.73,1.09,2.4-.62.38-1.41-.05-1.73.42,0,.44,1.71.1,2.3.27.43.13.84.69,1.11,1.06l-1.26,4.46c1.27.45,1.92-.74,2.78-.87,2.86-.44,2.25,2.51.65,3.88l1.72-.24c.2.23.51.42.65.68.58,1.12-.22,1.17,1.75,1.69l-.25,1.73c1.72-.64,2.66.52,3.01,2.15h-1.7s-.01-1.29-.01-1.29l-1.3.24c-.87-1.06-2.16-1.57-3.22-2.38-1.3-.99-2.73-2.56-3.83-3.47s-3.34-.76-3.27-2.98l-2.56.43.43-1.29-2.38-.41-.2-2.17c-1.15.41-2.14-.69-2.85-.79-.67-.1-2.19.78-2.95.78-2.02,0-1.27-1.89-2.81-2.39l.45-2.33c-1.33.96-2.09-.19-3.4-.46l-.03-1.68-1.5.76-1.08-.33.43-1.72-1.29-1.29,2.15,1.29-.43-3.01-3,.87.85,2.99c-1.82-.23-2.15-2.72-4.3-2.15.12,1.13-.22,2.25-1.06,3.04-.32.29-.96.35-1.03.46-.15.22-.28,2.22-.97,2.9-.86.11-1.92-.04-2.69.46-.47.31-.44,1.38-1.51,1.36l-.48,2.76c-.43.33-.86-.1-1.32-.02-1.15.2-1.81,1.21-2.99,1.07l.86,1.29-1.69.47s.65.85-.24,1.25c-1.21.55-.12-1.87-1.07-1.72-.08.54-.27,2.2-.51,2.5-.15.18-.75.14-1,.49-.8,1.12-.73,1.09-1.71,2.17-.76.84-.75,2.88-2.16,2.94-.1,0-1.18-1.02-1.31-1.22-.71-1.12,1.6-2.61,2.16-3.45.75-1.12.44-.82,1.42-1.8.6-.6.3-2.41,2.22-2.08l.07-2.08c.94-.12,1.79-1.13,2.1-1.98.39-1.06-1.02-.46-1.29-.64l.02-1.48c.75-1.33,1.76.41,2.56-.88.07-.42-.58-.09-.8-.25-.38-.29.18-1.96.44-2.47l1.64-.51c-.29-1.79-.86-2.38.82-3.65l-.9-1.87-.78-.49,2.58-.43v-2.14s-2.14-.01-2.14-.01c-.17-.67-.49-1.51.1-2.06.29-.27,1.15.23.68-1.31-.82.12-.72-.68-.88-.81-.29-.22-.85-.07-1.22-.31-.34-.22-.31-.8-.52-.98-.42-.36-1.45-.87-2.04-.98l.43-1.27-2.1-.07-1.74-2.75c-2.67.43-3.02-2.33-3.53-2.7-.34-.26-.96.18-1.61-.76-.66-.95-.23-1.31-.05-2.31-1.23.68-1.58-.56-2.58,0l.4-1.08c-.37-.82-1.01-.17-1.48-.59-.95-.84-.52-2.17-2.35-1.34l.22-.86h-1.08s1.29-1.72,1.29-1.72c-1.09-.07-2.29.38-3-.64l.86-1.07h-1.29s.43-1.72.43-1.72l1.13.87c2.23-.44,5.52,3.04,6.89,3.36.33.08.68-.32,1.3-.04.48.22.89.8,1.28.91,1.34.39,4.52-.58,5.88.13.76.39.68,1.12,1.14,1.44.59.42,1.8.42,2.36,1.45l2.09-1.2c1.14.52,2.18,1.1,2,2.54,1.97-.18,3.15-2.61,5.35-2.17l.24.88h.43c.18-.61.3-1.71.64-2.17,1.29-1.72,4.61-2.51,4.92-4.94l1.26-.26,2.28-3.74,1.22-.06c.22-1.19-.33-.79-1.25-.89l-.41-1.05,1.02-1.01c.76,1.03,1.26.39,2.35.36v-1.89s.77-.32.77-.32c-.09-1.45,1.19-2.12,1.61-2.93.95-1.83-.08-4.97,3.22-3.87l-.82-1.13,1.47-3.16.32.75Z"></path>
          <path class="cls-1" d="M390.34,192.97c.47,1.27-1.1,3.73-2.36,3.44-.86-.2-.32-1.97-.65-2.58l3.01-.86Z"></path>
        </g>
        <path class="cls-1" d="M290.24,336.85c-1.16,2.89-2.09,1.74-3.43-.22,1.07-1.49,1.92.78,3.43.22Z"></path>
      </g>
      <g>
        <path class="cls-1" d="M198.29,147.44l.43,3.01-.86.86,1.72-.43,1.23,4.69-.83.29v2.51s1.23.88,1.23.88l-.12,1.08-2.74,2.36.36,1.08,1.72-1.07.86.43-.47,2.74-1.67.49v1.27c.96.01,1.98-.3,2.56.67l-.44,1.89-2.99.45c-.47,1.15.82.67.88,1.08.22,1.4-.6,1.53-.82,2.2-.38,1.14,1.41,3.22,1.86,4.45.19.51-.5,1.36.66,1.93l-.79.27.15.81c-1.32.77-.61,1.27-.74,1.86-.09.45-.78.71-.79,1.35-.03,1.84,5.22,7,.88,7.95v.64s1.71,1.1,1.71,1.1c-.5.96-.35,2.12-1.7,2.15l1.3,2.77-.23.66c-.79.6-1.37,1.27-1.09,2.35.31,1.19,1.3-.11,1.93-.22.46-.08,1.01,0,1.49.03.07.73.73,1.33.02,1.92l1.28-.22c.24,1.16-.31.72-.86,1.05-2.82,1.73-.06,1.58.37,3.08.17.6,0,1.26.07,1.87h1.28s-.43,3.44-.43,3.44h1.29s-.83.47-.83.47c.41,1.19-.02,2.95,1.69,2.97v.43s-.83.03-.83.03l-.04,1.05.88.47c.35,1.26,1.43,4.13-.45,4.03v.85s.77.07.77.07c-.1,1.58,1.31,1.29,1.44,2.44l.81-.17c.51,1.49,1.56,1.47,2.56,2.18,1.23.88,1.08,1.93,3.02,1.06v1.29s-1.3-.24-1.3-.24l-1.28,2.18c1.14,1.22,2.44.92,3.86.65l.46,3.43,2.54.02.21,1.72.5.36c1.39-.5,2.73.74,2.74,2.2,1.94-.99,3.37,1.45,5.44,1.63.88.07,2.53-.95,3.3-.74s1.65,2.21,3.31,1.87l.4,1.53c1.05.25,1.37-1.31,2.35-1.3s2.3,1.16,2.58,1.18c.49.04,1.52-.75,2.14-.76.57,1.71,2.53,1.3,4.09,1.3l.04-1.24,1.05-.46,1.5,1.71-.24-1.72c.78-.57,1.31-1.81,2.39-1.72l.19,1.75,1.09.43-.42.82h1.29c-.65-.96-.35-1.54.06-2.52l4.46-.57.88-1.23,1.91.26c.48-.53.99-1.09,1.69-1.33.97-.32,1.79-.23,2.49-1.14.4-.51.05-1.74,1.62-1.97l1.71,1.64c.95.23,1.33-.78,2.15-.89.91-.12,1.51.39,2.33.43-.1-1.11,1.06-1.07,1.35-1.54.22-.35.23-1.18.46-1.39,1-.93,1.94.31,2.31.31,1.24-.03,1.44-2.72,1.56-2.89.14-.19,1.42-.24,1.26-1.33l1.24.43c.54,1.63-2.05,3.33.02,4.28-.22-.87,1.15-1.51,1.18-1.91.02-.46-.74-1.34-.12-1.97l1.95-.41-1.72-.86v-1.28c2.3.05,4.58-2.02,6.69-2.16,1.4-.09,2.81,1.22,4.29-.85l-.24-1.29,1.29.43-.42-1.04.65-.67,4.45.4c-.04-.28.9-1.55.98-1.6.46-.31,1.48.33,1.21-.94h.85s0,.56,0,.56l.87.29c-.03.73-1.15.58-1.72,1.07-.12.1-1.88,2.22-1.95,2.35-.19.32.74,1.7-.42,3.02-.28.32-.8.33-.96.52-.32.37-.93,1.92-1.03,1.98-.34.24-2.13-.03-2.75.9-.63.93.47,2.77-1.05,3.68l-1.49-.67-1.94.44.81,1.5c-.83,1.28-1.96,1.58-2.1-.21l.86-.43h-.86c-.39-1.34.85-.42.86-1.29h-1.72s.37,2.52.37,2.52c-1.01.03-.96.8-1.36,1.24-.16.17-.58.07-.66.16-.07.07.58,1.06-.72,1.66-1.12.52-.16-1.79-1.28-1.29-.97.44-1.5,2.4-1.51,3.44-1.12-.77-1.85-.29-3.01,0-.33,1.93,1.44-.41,1.29,1.07-.47.7-1.36.58-1.96,1.05-1.26.99-.86,3.78-3.6,2.18-.06.41-.8,1.94-.96,2.06-.22.17-.81.08-1.2.29-.64.35-2.33,3.52-3.32,4.62-.39.43-.52,1.28-1.23,1.61l-1.64-.83-1.56.84c-.17.13,1.58,1.63,1.24,2.72-.03.11-.94,1.84-1.04,1.99-.65.96-1.48,1.34-2.58,1.61l-.84-.65-1.49.8c.54,1.16-.01,2.74-.66,3.83-.86,1.44-1.3.54-1.67,2.8-.07.46-.99,1.49-.89,2.39-.76.08-1.57.6-2.24.76-.98.22-2.04-.3-2.72.72l1.54,1.49c.66.14,1.66-1.87,2.76-.2-.12.54-1.2-.15-1.3.46-.06.34.06.76-.07,1.17-.53,1.7-1.55,2.46-.78,4.59l-2.57.44c-.36-.38.79-3.05-.86-2.58-.08,1.35-.11,2.62.85,3.68l.57.13c.43-.21.85-.42,1.35-.39.3.02,1.63.32,1.52.88l-1.52.42.23,1.3-1.93-.81-2.84,4.2-2.53.47c.3,1.26,2.24.49,2.54,1.54.14.48.13,1.59.05,2.11-.11.7-.68.93-.8,1.35-.33,1.14.43,3.69-1.36,3.58v.21c0,.32,1.13.35,1.51,1.07.32.61.31,1.66.64,2.36l-2.15.22c.08.76-.12,1.64,0,2.37.11.67.65.9.78,1.36.5,1.69-1.79,4.4-2.45,6.01.69,1.53,1.16,2.91,2.13,4.23l-1.26,1.71.42,1.05,1.19.07c.9,1.17-.05,2.23.1,3.1.02.12.81,2.27.89,2.37.16.2,1.08.21,1.2.75l-.83,2.51-.88.27,1.36,2.51,1.17.09c.3,1.21.45,1.97.01,3.17l.89.45-1.71.66.43,2.56,1.07-.36.74,1.58.78.31v4.66s1.93,1.1,1.93,1.1l-.05.89,1.5,1.52,1.31-.25-.85,2.33c.33.71,1.17.84,1.61,1.23.16.14.05.54.14.67.26.37,1.64-.11,2.1-.37l-1.72.86c-.29,1.46,1.87,2.49,1.65,4.01-.02.16-1.2,2.23-1.31,2.34-.42.4-1.73.37-2.03,1.21l.4,1.89c1.17-.51.35-1.55,1.93-1.3.32.05.13.57.32.74,1.2,1.08,1.97,2.07,3.71,2.33l.46,3.56.91.47-.45,2.35,1.3-.29.21-.57.21.57,1.3.29c.24-.76-.77-1.41-.76-1.93.01-.79,1.1-1.62,1.84-1.84l1.49.79-.38,1.43c.76,1.24,1.98,1.8,3.4,1.98-.59,1.42,0,2.62.4,4.03l1.73.71c.42,1.57-1.22,2-.37,3.37l2.1.05-.42-1.47,1.28-.67-.38,1.94c.38.95,1.66.42,2.04.69.09.06.36,1.21.87,1.45l-1.64,2.21.73,1.22-.36,1.05-1.26.46c2.79-.03,4.93,1.94,7.11,3.41.64.92-.15,1.86-.12,2.4.03.47,1.3.74,1.19,2.11-.14,1.73-1.5,1.62-1.73,2.17v.64c1.52-.07,1.39,2.28,3.01,2.15,0-.93-.31-2.21.86-2.58.48,1.97,1.04,3.6.43,5.58.32.32,2.61-.73,2.15.86-.64-.03-1.36.13-1.89.47-.56.36-.75,1.35-.9,1.25-.41-.28-1.14-.58-1.31-.85-.24-.39-.1-1.01-.26-1.23-.18-.25-1.63-.36-2.09-.7-.44-.32-.52-1.18-1.07-1.51l-1.28.86c-.91-1.17-.39-1.99-2.32-2.19l-.04-1.24-1.29.86v-2.58c-1.25-.37-.71,1-1.54,1.25-1.15.34-1.7-.54-2.23-1.7.38-.71-1.2-1.35-1.76-1.74-2.46-1.07-2.35-1.63-4.38-3.12-.71-.89-1.54-1.6-2.33-2.44-.56-.58-1.46-.14-1.08-1.7l-.64.86c-1.56-.23-1.63-1.73-1.07-2.99l-1.53-.42c-.94-1.69-2.33-3.26-3.71-4.67-.45-.46-1.35-.14-1.64-.31-.84-.48-1.36-1.99-2.58-1.93v-.85s.86-.22.86-.22c-1.03-1.16-2.9.42-2.62-1.88l-1.65-.51-.03-1.69-1.3.25c-.58-.89-1.46-2.27-2.33-2.85-.79-.53-1.66-.13-1.56-1.21l-2.54-.05.43-1.27c-.83-.08-1.41-.71-2.15-1.11-1.03-.56-3.85-2.12-4.74-2.97-.46-.44-.78-.82-.89-1.47l-1.68-.05.4-.82c-.91.16-.73-.69-1.09-.92-.89-.54-2.68-.66-3.6-1.49-.63-.56-.74-1.73-.93-1.87-.46-.35-2.2-.1-2.08-1.78-.87.64-1.39,1.08-2.58.86l.44-.86h-1.72s0-1.29,0-1.29c-1.85.85-2.28-.73-3.45-1.49s-3.22-.82-3.03-2.77c-1.37.17-2.15-.61-3.22-1.3l.22-1.53-.62-.63c-1.06,1.17-3.17.71-4.54.24-.7-.24-1.12-.99-1.9-1.1-.68-.1-3.49.16-3.64-.01l-.45-2.13c-.84.37-1.76.65-1.72,1.72h-.43c-.28-1.43-1.29-2.3-2.77-2.14-1.34.14-2.35.51-3.53.79-1.75.42-1.85-1.04-2.56-1.18-.45-.09-2.08.76-2.93.41l-.45-.88c-1.15,1.18-2.71.31-3.93,2.11l-4.45-.39.42,1.48c-.85,1.36-1.83.34-2.81.23s-1.64.53-2.49.03l-1.35-2.17c-.74,1.01-2.11.96-3.22,1.29l1.72,2.14c-.94-.29-1.8.71-2.42.79-.45.06-.92-.42-1.58-.31-1.67.28-3.05,3.02-4.81.88l-2.57,1.24-.26-.82-.59-.07c-1.79.43-3.3,1.16-4.73,2.17l-.66-.22-1.06-1.51c-.88,1.9-2.34,1.96-3.65,3.22-.09.19,1.76.32.86,1.07-.23.19-1.23-.28-1.74-.22-1.11.13-1.77,1.11-2.53,1.31-.37.1-.77-.23-1.31-.05-1.81.6-3.67,2.97-4.72,3.48-.7.34-1.46.07-2.17.41-1.7.83-1.01,3.01-1.69,3.47l-2.12.26c-.3,1.36-2.47,1.61-3.27,2.94l-.46-.88-2.34.02.31,1.09-1.24,1.86c-1.4-.19-1.07.57-1.32.79-1.11.97-3.18,1.03-3.67,1.51-.18.17-.22.69-.5.99-1.82,1.92-2.27,1.97-1.74,4.93-1.32.61-3.04-.72-3.22.86-2.05.51-.47,2.6-1.27,3.88-.89,1.42-1.54-.8-1.93-1.09-1.35-1-1.79,2.61-2.37,3.24-.33.35-.95.37-1.02.47-.21.29.09,1.81-.47,2.69-.22.35-.64.23-.75.37-.46.59-1.87,3.27-2.06,3.33-.85.26-.9-.96-1.15-1.2-1.15-1.11-2.54,1.32-4.21.79l-.48,3.38-1.47.49c-.46.05-.89-.31-1.02-.72-.15-.49.18-1.29-.27-1.45l-1.53,1.53v1.89s-2.99.44-2.99.44l1.23,1.5-.43,1.03c-.4.09-.85.04-1.22.26-2.13,1.28-1.71,1.41-3.01,3.02-.9,1.11-3.01,1.48-2.15,3.21l-1.47-.02c-.37.68-1.31,1.57-1.98,1.98-.49.3-1.24-.39-2.14.4-.81.71-.48,2.1-1.69,1.96l.2,1.69c-.91.82-1.48.64-1.72-.44-.6.6-1.65.91-2.26,1.4-.3.24-.32,1.34-1.38,1.21.82,1,.27,2.53-1.08,2.11-.51-.16-.52-1.04-.73-1.2-.43-.32-2.03-.37-2.45-1.58,1.19-.88.5-1.99.38-3.22l2.14,1.1-1.22,1.68,1.66,1.08c-1.08-2.33.55-1.9,1.25-2.63.06-.06-.27-.48-.18-.82.22-.86,1.38-2.11,2.37-2.14.19-.92-.16-1.05-1.09-.87-.87.17-1.03,1-1.92.87.19-2.13,1.24-3.21,3.43-3.01-.34-2.49.79-4.79,2.79-2.15l2.79-2.39-.88-1.69,1.32-2.15-.86-.42.86-1.94c1.79.08,1.36,1.33.43,2.36l1.71.64c.18-1.32.64-2.41,1.72-3.22l-2.57-1.29c1.35-1.06,1.81-2.39,2.11-3.88.87.09,2.33-.91,2.81-.91.45,0,.91.46,1.66.24.48-.15,1.16-1.01,1.8-1.19,1.22,1.47,2.37,1.85,3.64.17l-1.95-1.48-.21-2.35c.61-.28,1.3-.89,1.52-1.53.16-.46-.4-1.06-.18-1.24.54-.44.63-.49,1.26-1.1.28-.27.87-.33,1.1-.64.53-.72-.66-1.73.4-2.16,1.18-.48.01,1.82,1.5,1.29.01-.64-.06-1.29,0-1.93.08-.85.99-1.09-.37-1.12l.78-3.63c.91-1.02,3.42.21,3.48,1.31l-.46,1.5,1.22-.63c-1.46-2.49,1.05-2.33,1.38-4.29-.87-.32-1.15-.72-1.3-1.69l1.7-1.33-1.29-1.07,1.29-1.29,1.07,1.29c.62-1.44,1.04-1.03,1.92-1.5,1.13-.6,1.42-3.11,1.32-4.31s-.78-1.69-.88-2.77l1.27-.02.45-3.42h1.29s-.43,2.58-.43,2.58c1.71-.44,2.62-1.11,4.3,0,.28-.29-1.14-2.28-1.49-2.59-.76-.7-1.8-.94-2.81-.84l.02-1.26,3.39-.91.43-2.07-1.26-.91,1.7-.02c-.13-1.33.54-1.55,1.55-2.11.05-1.22-.36-4.21.27-5.11.06-.09,1.23-.52,1.44-1.35,1.39.15,1.8,1.19,2.56,2.14l1.04-1.14c.3-1.05-1.34-2.45-.39-3.58l-1.26-.03-.47-1.68c2.03,0,1.99-2.45,4.3-2.15l-1.72-.86,1.29-.43c-.66-.71.01-1.39-.08-1.87-.06-.31-.53-.62-.69-1.02-.49-1.21-1.28-2.65.77-2.27l-1.29-2.57.8-.05v-1.18s-.8-.05-.8-.05l1.09-1.28.42-1.73.66,1.71,1.28-.21c-.55-1.46-1.44-2.51-.43-4.08-2.39-.11-2.6-1.46-1.26-3.22l-1.71-3.07c.71-1.14.64-1.4.39-2.73l-2.15.43c.6-1.32-.5-2.15,1.66-2.21l.48-1.84-.84-.68-1.07.86c-.94-.44-.43-1.66-.72-2.09-.07-.11-.52-.01-.65-.16-.77-.89-.68-2.48-2.28-2.04-.34-1.53,1.1-.46,1.72-1.07-.43-.48-1.54-2.19-1.63-2.65-.15-.74.93-1.26-1.29-1.54l-.37-.77h-1c.73-1.33-1.28-3.18-2.57-3.42-.04-1.2,1.09-1.85,2.15-1.72-.85-1.2-2.16-1.06-1.72-3.01h-.64s-.63,1.02-.63,1.02l-1.31.27.43-2.78-.7-.62c-2.21.79-1.86-.96-2.41-1.68-.09-.12-.51,0-.77-.36-.5-.7-1.14-1.47-1.31-2.29l-1.69.42.82-1.44c-.55-1.26-1.55-2.01-2.78-2.39l-.27-1.69-.74-.09.39-2.54-1.7-.02c.14-1.36-.92-1.88-1.71-2.77l.84-1.07c-1.68.06-3.33-1.73-3.01-3.44-.74.03-.58,1.16-1.07,1.72-.69.79-1.89,1.04-2.7.31-.12-.11-.03-.53-.17-.64-.24-.19-.88-.14-1.44-.51-1.21-.8-.84-1.68-1.25-2.62-.59-1.34-1.58-1.92-1.09-3.85l-2.08.53-.28.76c-.4-.63-1.3-.8-1.72-1.29s-.44-1.32-.73-1.63c-.55-.58-2.56-1.2-3.19-2.18l-1.02.38-.43-2.58,1.3.24,1.28-1.52c-1.76-.06-2.62,1.68-4.29.21-1.28-1.13-.68-3.4-.89-3.62l-2.33-1.32-.21,2.58c-1.6-.19-3.13-1.22-3.37-2.85-.02-.15.47-2.63.55-2.75.38-.59,3.62-2.11,4.52-1.71l.02-1.27c1.91-.52,2.36.88,3.85,1.3l-.45,1.46.78.31c1.02,1.65-.26,1.85-1.18,2.93.93.48,2.69.67,3.44,1.07.65.35.65,1.19,1.13,1.53.34.25,1.21.41,1.66.72l2.16-1.11c.92.66,1.64,1.95,2.76,2.32,1.75.57,4.81,1.6,6.44,1.06l.72,1.23c1.09.19,2.75.23,3.74.55.94.31,2.31,1.72,3.7,1.67l.05,2.1,5.56,1.31-.43-3.01,2.32.04.67.62-.37,1.71c.49.94,1.46.47,2.24.71.53.16.96.61,1.44.71,1.21.27,2.55-.18,3.77.49l1.51-3.23c.33-.23.72-.23,1.1-.22,1.34.01,1.77,1.63,2.79.24l-1.29-.43v-1.5s2.15,0,2.15,0v1.72s2.35-.45,2.35-.45l.45.91c2.97-1.26,6.25-1.13,9.42-1.33,1.6-.1,2.41-1.29,2.42,1.7l1.25.47.03-1.26,3.62-1.32.43,1.29.71-1.23,1.23-.06-.02-1.5c1.01-.92,2.14-.84,3.02-1.29,1.23-.63,2.86-2.16,4.44-2.9.57-.27,2.41.13,3.29-.34l.06-1.64c1.92-.44,3.75-1.28,2.95-3.49.61-.03,1.29.11,1.88-.06.15-.04,2.21-1.68,2.41-1.89.71-.71,1.59-2.21,1.73-3.21.93-.15,1.31.79,1.93,1.29l1.03-1.07c-1.33-.99-.04-2.13-.78-3.62,1.12.02,1.53-1.59,1.79-2.53l.73-.11-.4-1.24,2.1-.92.22-4.03,1.34-2.39c1.12-.22,1.65-.51,2.35-1.51l-.85-1.47c.71.05,1.54-.05,1.72-.86-1.72,0-1.55-2.69-.43-3.65.75-.64,1.99-.44,2.58-1.29-2.59-2.85-.76-3.2.19-5.38.17-.39-.1-1.21.32-1.63.97-.98,2.38-1.08,2.15-3.46l.71-.12c-.25-.96.29-1.65-.79-2.3,1.62-1.97,1.98.65,2.36.64l1.06-1.11c-.69-1.22-1.08-1.9-.85-3.41.2-1.34,1.48-1.46,2.05-2.03,1.24-1.23.41-2.14.51-3.56.18-2.6.74-4.98.93-7.46l.84-.27c-1.28-2.18,1.64-5.39,1.71-6.88.03-.57-.36-1.06-.35-1.35.05-1.5.98-3.35.33-4.86h1.72c.06-1.14-1.22-1.49-1.51-2.56-.16-.59-.09-2.39-.22-3.23-.08-.48-.29-.7-.41-1.09h2.58c-.83-.99.06-2.19-.11-3.13-.15-.84-.86-1.7-.7-2.58.13-.72,1-1.31,1.15-1.88.09-.32-.28-1.29.09-1.86l1.29.43c.09-.81.06-2.47,1.29-2.15ZM177.16,295.7l-2.07-.51.43,1.72c-2.09,1.08-1.62-.4-1.94-.45-.59-.09-1.36-.05-1.72.44-1,1.68-1.48,2.59-.21,4.3l-1.29.22c.9,1.89,2.62,3.91,4.73,4.08l-.44-.86c.61-.06,3.07-.71,3.37-.94.07-.05.84-1.4.87-1.49.58-1.91-1.26-4.6-1.72-6.51ZM202.16,295.61l-3.38.92c-.17,1.16-.79,2.33-.43,3.54.17.57,1.06.88,1.19,1.42.15.59-.52,1.48.1,2.23,1.61.32,3.21,1.66,4.86,1.37l.31-.8c1.79.2,1.04-1.31,2.04-2.51-1.04-1.2-.22-1.79-.44-2.86-.12-.56-.77-1.26-.88-1.94-1.17-.8-2.08.03-3.36-.07v-1.29Z"></path>
        <path class="cls-1" d="M73.26,229.9c.16.12-.46,2.55-.63,3.02-.38,1.04-1.72,2.66-1.89,3.28-.28,1,.52,1.74.38,2.72-2.63.07-4.55-1.14-6.44-2.79.16-.37.7-.23,1.08-.63.95-1.04.25-1.84.21-3.02,2.63.44,4.69.26,4.3-3.01l3.01.43Z"></path>
        <path class="cls-1" d="M263.12,355.36c.11,1.39.7,2.77,2.17,3l.02,2.11c-1.04.25-3.13-1.09-3.38-1.99s.31-2.15-.48-2.95c.6-.92.82-.35,1.67-.17Z"></path>
      </g>
    </g>
  </g>
  <g>
    <path class="cls-1" d="M520.22,341.27c.09-.05.21-.74.8-1.1,2.94-1.82,2.79-.31,4.56-.23.68.03,3.09-.92,3.32-.76v2.15c1.21-.1,1.81-1.23,3.17-1.17,1.51.07.9,1.17,1.41,1.61,1.51,1.28,1.5-.43,1.86-.69,1.03-.73,3.93.96,4.14,2.33l2.36-.22c.63,3.08,4.67,3.32,5.36,6.27.18.77-.64,1.23-.65,1.91,0,.37,1.13.33,1.28.9.1.39-.64,3.3-.57,4.12l-1.47.59.35,1.92c-2.42.3-1.31,1-1.76,2.33-.22.67-3.91,3.13-4.68,3.53-.44.23-1.07-.2-1.19-.13-.44.27-.46,2.32-2.21,1.21-.53,1.7.81,1.76,1.14,2.3,1.44,2.32,1.28,3.17,3.06,5.57.81,1.09.63,3.14,2.72,3.95l-1.28.66,1.72,1.07-.85,1.5h1.72s-.43,2.14-.43,2.14c1.9-.02,1.59,1.25,2.59,2.37l-2.15.45.84,1.65-1.13,1.09c-1.34.36-2.17-1.65-2.88-2.4-.2-.21-.86.05-1.14-.41-1.07-1.73.54-3.23.43-3.79-.46-.89-1.77-.36-2.2-.92-1.7-2.18-1.85-5.22-3.85-7.25,1.42-.15,2.13-1.39,2.14-2.8l-2.98.85-.47-1.07.88-.82-.89-2.83-1.03.44c-.54-1.43-2.12-.69-3.55-1.21-.77-.28-.49-1.25-1.65-.94-.91,2.27-3.04,2.37-1.95-.41-2.75-.45-.98,2.26-1.29,2.58l-1.94-.84-.57.71c.16.94-.41,2.29-.37,3.04.15,2.61.8,5.17.52,8.23-.21,2.29-1.07,2.7-1.06,2.87.04.58.66.92.73,1.36.44,2.62.54,4.32-2.58,4.35-1.13-.19-.71-1.59-1.12-1.83-.42-.23-1.21-.16-1.3-.24-.16-.15.35-3.84.38-4.46.07-1.35.29-2.7.32-3.72.03-1.24-.62-2.37-.77-3.58l1.31-.92c-1.44-1.45-.4-3.51-1.27-5.2l.81-.37c-1.68-2.39-.24-4.06-.03-6.1.14-1.29.46-4.45.47-5.55.01-1.61-.9-2.68-.89-3.45.01-1.04.4-2.51.36-4.32-.04-1.63,1.16-1.64-.83-2.55,2.24-2.57-2.49-3.99,1.69-6.25.21.99,1.34,3.18,2.53,2.49ZM524.61,344.78v-2.15c-2.26.76-1.08,2.83-3.88,2.17,1.35,1.56.02,1.97-.04,3.64-.07,1.97.96,5.36.92,7.78-.02,1.41-.16,3.31-.83,4.49,1.52.48,4.75-.02,4.31,2.14,2.38-.66,3.43-2.42,5.59-.02.95-1.01-3.12-2.72-1.07-3.01.35-.05,4.38,1.21,5.64,1.23.93.01,1.81-.49,2.75-.4l-.42-1.24,3.23-1.8.84.88,1.07-1.08-.97-.63-.31-.86c1.03-.21,3.04-2.42,2.91-3.27-.06-.39-1.1-.5-1.37-1.16-.33-.79.11-1.85-.04-2.07-.29-.41-1.51-.44-2.02-1.01-.4-.45.23-1.37-.37-1.76-2.52.17-7.04.24-8.21-2.32-2.49,3.44-1.8-1.01-4.48-.85-.25.01-.19.72-.57.84-.73.23-1.87.15-2.69.47Z"></path>
    <path class="cls-1" d="M673.56,355.77c1.03.63,2.26.9,3.09,1.86l.2-.97c.13-.9,2.08-.12,1.74.96l-1.29.22,2.54.68c-.32,2.33,1.5,1.47,1.98,2.51.15.34-.21.99-.09,1.42.49,1.62,2.37,4.94.34,5.71,3.09,1.29.14,3.3,2.59,4.3-.69.95-1.06,1.01-2.14.65l-.44,3.19c2.17.9.77,3.24,1.34,5.11l-1.73,1.39c2.33.79,1.44,2.71,1.3,4.6-1.12.34-1.06,2.2-1.93,2.08-1.12-.15-3.12-2.96-4.73-3.01-1.09.48-.16,1.64-.22,1.72-.07.11-1.24.08-1.52.21-2.67,1.26-5.26,2.87-8.38,2.83l-.22-1.28c-.71.76-2.35,1.5-3.37,1.3-.29-.06-.22-.7-.61-.84-.48-.17-1.19.05-1.81-.26-1.46-.71-2.35-1.92-3.26-3.2l.22,1.72c-1.81.54-1.61-.66-2.18-1.03s-1.48-.56-1.74-.96c-.76-1.16.63-2.41-1.63-3.4.23-1.26.14-2.22,1.65-1.91-2.29-2.15-.47-7.85.85-3.44,2.19-.11.85-2.3-.86-2.18l-.02-2.1c1.83-.62,4.06-.89,5.46-2.33.42-.43.29-1.29.83-1.64.15-.1,3.29-1.15,3.47-1.18.85-.1,1.63.47,2.42.36.29-.04.24-.98,1.44-1.22,3.18-.63,4.26-.13,6.39,2.03.07-2.37,3.96-3.35,4.52-.87l.84-.65c-1.45-.87-.51-2.13-.63-3.03-.05-.32-1.89-3.83-2.06-3.97-.38-.31-1.86-.13-2.44-.57l-.1-2.05-3.83-.03.22.86c-1.15-1.34-7.18.73-7.83,1.44-.23.26-.15.96-.37,1.13-.96.76-2.41,1.09-2.98,2.21l-.97-.71c.72-1.69-.63-1.77-1.18-2.76-1.05-1.89,1.24-2.09,2.3-2.83,1.78-1.23,1.94-1.93,4.69-2.63,1.82-.47,3.77-.43,5.39-.7.48-.08.85-.81,1.75-.76,1.36.09,2.35,1.62,2.99,2ZM676.47,368.83c-1.53-.33-.52,1.11-.91,1.66-.19.27-1.19.17-1.56.61-.61.7-.37,2.18-2.47,2.47-1.31-.64.8-2.41-1.07-2.14.24,2.36-1.58,1.32-2.59,1.96-.6.38-.65,2.46-2.36-.22-.75,2.03-2.25,1.31-3.64,1.97-.87.41-1.37,1.83-2.84,1.94-1.06.08-.63-1.59-1.91-1.3-.38,1.13,1.32.86,1.18,1.94-.1.83-2.02,1.17-1.87,2.8.34,3.76,4.13,2.9,3.31,6.01,1.46-.34,3.46-.95,4.52.41l.21-1.28c1.63.49,4.84-1.03,6.05-.24.44.29.16,1.22.84,1.07-.42-3.32,2.43-3,4.17-4.45,1.56-1.3,3.93-5.1,2.26-6.96l1.25-.71-.4-1.67-3.86.87c-.09-2.29,2.42-2.37,1.7-4.74Z"></path>
    <path class="cls-1" d="M877.65,358.23c.15.1,3.47-.03,3.05-.7l.49-.07c.9.69,2.51.81,3.31,1.45.84.67.68,1.56.99,1.84.24.22.93-.06,1.22.35.26.37-.06,1.17.08,1.38,2.01,3.05,2.11,4.29,2.03,8.06-.02,1.06.8,2.33.26,3.2l-3.87,2.6-3.24-1.28c-.2-.2,2.38-1.95.64-2.58-.16-.06-.92,2.03-2.32,2.39l-2.2-1.08.44,1.28c-1.19.81-1.89-.23-2.38-.26-.44-.03-1.01.65-1.71.67-1.02.02-2.71-.85-4.32-.59-1.76.28-3.86,2.4-4.49-.81l-.89-.26c.11,2.28-2.14,2.25-3.88,2.16-.54,2.27.8,2.52,1.59,3.59.32.44.27,1.09.77,1.59.84.84,2.43.42,1.99,1.91-.11.37-1.07-.06-.87.64,1.06-.29,2.57,1.16,3.22,1.12.32-.02.87-.68,1.7-.73,2.55-.14,5.03.41,7.56.43.45,1.38-3.37,1.72-2.14,3.02.23.25,2.82-.74,2.94-.94.34-.57-.14-1.77.11-2.47.81-.76,3.26.06,3.39-.05.49-.46.24-3.83,3.13-2.94,1.95.59,2.52,2.01,1.37,3.76-.33.5-5.24,4.23-5.89,4.45-.95.33-6.77,1.14-7.2.78l.42-1.72-2.38-.42c.59,1.56-3.16,1.91-3.57,1.66-.19-.12-.23-.83-.51-1.03-.51-.35-1.33.53-2.55-.43-1.18-.94-2.04-2.24-2.47-3.65l-1.89.04-.42,1.29c.68-1.53-2.1-2.93-2.17-3.32-.19-1.03.65-2.59.37-3.06-.14-.23-1.28-.22-1.59-1.23-.74-2.35.08-3.96.27-5.9.09-.86-1.1-2.26.48-3.06,1.16-.58,3.31,1.22,5.16.21l-.43,1.72c1.41.83,1.9-.31,2.84-.44,2.73-.36,3.91.78,5.98.84,1.01.03,2.9-.51,4.1-.45l-.44-1.28,5.81.84-.22-.86c2.04.17,4.08-.18,5.39,1.69,2.59-3.16-2.72-5.88-1.54-9.02-2.8.63-5.7.51-5.61-3-1.59-.06-1.99,1.8-2.88,2.08-.72.23-4.25-.02-4.41.13-.4.37-.15,2.91-2.6,1.69l1.28-2.58-3.45-1.28.4,3.83-2.06.07c-.07,1.55-1.26,1.77-1.94,2.61-.82,1-.48,2.25-2.73,2.48-2.64.27-3.14-4-1.87-5.75,1.57-2.15,3.42-1.85,4.89-2.78.38-.24.37-.96,1.02-1.23,1.47-.61,3.72-.24,5.23-1.9l-.36-.77c2.88-1.39,3.97-.19,6.42.64.75.25,1.71.02,2.34.24.66.23.62,1.06.76,1.16Z"></path>
    <path class="cls-1" d="M948.93,358.92v-1.28s2.58.42,2.58.42c.27,1.33-.39,1.37-1.28,1.93l3.44,1.07-.86,1.92,1.71,1.34c-1.22,1.39,0,2.52-.15,3.22-.16.76-1.29,1.17-1.1,2.12l2.04.62c-.19,1.94-.59,2.49-2.03,3.68,2.46.24.79,2.88.99,4.03.1.59,1.06,1.19,1.03,1.77-.04.67-1.77,1.58.17,2.16l-2.61,3.94c.3.99,1.38,5.83.87,6.15-1.05.63-3.18-.69-3.64-1.69-.53-1.15.28-1.9.21-3-.99.91-1.92,1.3-3.13,1.82-.72.31-5.71,2.07-6.13,2.05-.56-.03-1-.68-1.28-.68s-.74.67-1.28.7-4.34-1.06-5.22-1.23c-1.34-.26-2.76-.23-4.07-.67-.37-1.71-2.8-2.92-3.27-4.5-.38-1.26.33-1.89.25-2.8-.05-.55-.67-.97-.7-1.31-.04-.37,1.05-2.12,1.27-2.9.25-.9-.27-1.85.29-2.65l3.84-2.21-2.58-.42c2.04-1.86,4.91-2.27,7.39-3.3.54-.22.36-.99,1.4-1.05,2.23-.12,1.1.77,1.21,1l1.84,1.79c.44,0,1.26-2.45,2.38-1.96l1.25,2.55-1.68,1.35,1.07.64c.7-1.38,2.38-1.8,2.41-3.39l3.82.36c.91-2.5-.98-4.34.43-6.23-1.22-.13-2.36-3.01-2.68-3.18-.41-.22-2.05.58-4.22-1.14-.48-.38-.26-1.23-.88-1.04l-.28.87c-1.6-.62-2.88.74-3.85.87-.83.11-1.94-.56-2.26-.37-.37.22-1.17,2.11-3.03,1.73l-.26,1.09c-2.46.02-4.85.3-4.96-2.85,1.8.95,2.09-.75,3.81-.93-1.06-3.98,4.7-1.57,5.99-3.04.07-.08-.58-1.12.93-1.49,1.01-.24,1.41.54,1.94.52.4-.01,1.9-1.05,2.61-1.1.73.34.22,1.32.79,1.71,1.15.76,2.55.09,3.31.59.56.37.62,2.7,2.14,2.38ZM950.15,377.99c-.36-.51-2.93-2.72-3.53-2.93-.89-.31-5.42-.99-6.49-1.05-4.07-.22-6.62,2.03-10.07,3.69l1.29.21c-.84,1.35.56,3.7.37,4.53-.06.27-.74.15-.73.39.03.69.75,1.39-.04,2.39,2.35-.88,4.57.46,7,.52l3.11,2.45c1.5-.56,1.39-2.8,1.94-3.23.36-.28,1.63-.35,2.33-.69,1.16-.55,2.62-2.5,2.43-.01l2.56.03-.86-.43,1.1-4.96c.02-.42-.18-.62-.39-.92Z"></path>
    <path class="cls-1" d="M607.74,355.71v1.72s3.42-.41,3.42-.41l.04,2.12c1.09-1.05,3.09.53,3.37,1.59.05.2.14,3.94.1,4.14-.08.38-1.03.13-.88.91.28,1.42.35,2.03.56,3.38.09.55.83,1.64.69,2.23-.05.22-.53.21-.58.32-.37.83-.4,1.6-1.31,2.44-1.84,1.71-2.14.03-3.86,0-.77-.01-.53.81-.92.9-.89.22-8.39.72-8.74.47l-.22-1.29c-.57,1.33-1.12,1.46-2.58,1.32l-.22-1.31h-1.28c-.29,3.34-2.59,1.5-4.54,1.3-.45-.05-1.19-.24-1.07.43l1.31.28c-.11,1.41,1.42,2.36,1.64,3.47.1.51-.37,1.25-.3,1.36.06.09,1.27.44,1.71,1.1.41.62-.35,1.59.67,1.89l11.93.74c.66-.14,2.19-1.46,2.7-2.01.54-.59.2-1.15.26-1.22.15-.17,3.16-1.82,2.15-.22-.55.88-2,.97-.75,1.85.65-.71,2.45-1.65,3.23-1.09l.39,1.26c-2.2.76-1.97,3.84-3.38,4.8-1.5,1.01-1.46-.98-1.93-1.04-.14-.02-2.32,1.04-2.55,1.24-.27.24.13,1.72-1.88,2.12-1.29.25-1.76-.75-2.9-.84-.98-.08-1.81.47-2.78.25-1.95-.44-.79-2.55-2.58-3-1.41-.36-1.4,1.59-2.32,1.47-1.89-.4-2.04-1.82-2.76-2.54-.83-.83-2.52-.6-3.37-1.68-.81-1.04-2.98-6.99-3.15-8.49-.27-2.38.45-2.28.96-3.99s.05-4.05,2.35-3.89v-1.28s-1.33-.25-1.33-.25l-.39-2.74,1.27-.03c-.26-2.08-.56-3.21,1.5-4.29l1.08,1.28c0-.93.34-1.9-.86-1.72v-.42s2.19-.66,2.19-.66l-.05-1.07,2.09.37.75-1.21c1.96-.01,3.12.89,4.48,2.1l-.87-1.5.74-1.09c.76.2,1.96-.35,2.52-.26s.84.98,1.27,1.01c.31.03,1.03-.7,1.74-.75.93-.06,2.14.65,3.21.41ZM607.69,360.08c-.29-.24-2.68-.01-3.38-.92l-.25,1.32c-2.17.69-5.51-.05-7.3.19-.67.09-1.21,1.12-2.56,1.12-1.41,0,.15-1.58-1.51-1.3.11,3.67-.7,6.84-1.7,10.32,1.08.7,3.1-.05,3.64.06.45.1.59,1.7,2.57,1.51,1.18-.11,1.08-1.05,1.84-1.5,2.05-1.21,2.45.32,3.37.33.71,0,1.83-1.3,3.85-.9l.45,1.32c1.34-1.9,6.09-.9,5.31-3.59-.39-1.36-2.98-2.02-1.66-5.14.23-.56,1.01-.06.85-.75-3.25.92-2.94-1.6-3.52-2.07Z"></path>
    <path class="cls-1" d="M739.41,335.94c-.4,1.72-.77,3.42-.59,5.22.11,1.09.81,2.2.86,3.15.09,1.65-1.19,3.93-.23,5.98l-1.69.72c.64,1.34-.33,2.22-.37,3.18-.09,2.09,1.51,2.1,1.08,5.11-.33,2.3-.16,2.64.17,4.83.39,2.62-1.24,2.63-1.3,4.71-.06,2.01,1.06,2.44,1.16,3.43.2,1.99-1.52,2.45-1.56,2.67-.21,1.45,1.14,4.89,1.31,6.81.02.28.04,3.65-.03,3.83-.28.71-1.83.6-1.2,2.42l1.71-.22-1.26,2.63-2.16-.24-.65,1.71c-1.01-.31-1.91-1.82-1.96-2.82-.05-.94.81-1.43.88-2.53.22-3.56-.57-7.54-.69-10.78-.04-1.12-.28-6.32-.16-6.84.13-.61.87-.85,1.42-.68.64.19.31,1.7,1.51,1.28.53-1.83-.86-1.55-1.29-2.8-.41-1.18-.22-2.46-.02-3.65h-1.29c.34-2.14.81-4.52.85-6.69.03-1.61-1.55-4.73,1.27-4.51-.55-1.03-.56-1.64.42-2.37l-1.31-.43c-.53-1.7,2.09-3.26-.03-3.89,1.34-1.81.03-2.55.03-3.79,0-1.27.65-4.46,1.69-5.25l1.29.66v-1.3s2.14.44,2.14.44Z"></path>
    <path class="cls-1" d="M1012.03,341.05l-1.28.26c-.49,2.41,1.61,4.69,1.35,6.86-.15,1.19-1.08,2.15-1.09,3.2,0,1.11,1.37,2.15-.16,4.08l1.7,1.33c-.87,1.27-1.31,2.28-1.21,3.89.07,1.02,1.39,4.44,1.26,5.07-.06.31-.91.54-1.25.99-2.14,2.85.05,3.56.16,6.17.02.48-.39.8-.39,1.08-.02,1.03.39,2.16.2,3.25l-1.29-.43-.87,3.63c1.72.32,1.23,4.18.69,5.44-.56,1.31-2.13,1.2-.27,3.64l-2.96,1.08.43-1.28-1.54-.4-.21-1.1c1.19-.32.81-1.4,1.3-2.37-2.98.09-.52-1.93-2.11-2.36l-.06-4.09,1.3,1.71,1.21-.51c.55-3.3-2.34-5.96-1.24-9.39l2.57-.23-2.55-1.55c-.42-1.63,1.66-3.07,1.7-3.26.2-1.11-1.15-4.2-1.11-5.49s.92-2.99.9-3.46c-.03-.64-1.17-1.83-1.04-3.35.22-2.49,2.48-2.48,2.49-2.69-1.16-1.39-.27-2.67-.52-3.75-.17-.74-1.5-1.76-1.52-2.26-.01-.42.61-.91.65-1.36.05-.54-.76-1.02-.79-2.02-.05-1.72.82-2.62,2.51-2.03l.48-1.48-2.59-.42c.59-.92,3.01-2,3.9-1.34l1.24,4.96Z"></path>
    <g>
      <path class="cls-1" d="M805.79,339.58l-2.14,2.15c2.33-.4,4.22-1.15,6.02.85l.03-1.26c2.25-.67,1.78,2.37,4.27.82-1.23,3.83,5.41,1.78,2.61,5.58,1.24-.1,2.85,1.86,3.31,2.86.04.1.46,1.98.45,2.08-.05.61-1.64,1.23-1.61,2.16v.41c1-.14.84,2.22.6,2.7-.45.88-1.16.34-1.47.79-1.22,1.83.16,4.99-3.56,4.91l-.9-1.27c-.97,2.52-.84,3.56-4.08,3.45l1.29-1.3-.65-.84c-2.32,1.15-2.28,3.42.23,4.3l-.43.65c-1-.47-1.24.54-1.28,1.5l2.52-.39c.72,2.1-.51,2.3,1.79,3.61-.21,1.87-1.64.32-2.58.86.98,1.85,3.99-.33,3.76,1.72-.04.39-.8.7-.93,1.04-.4,1.08,1.05,3.16-2.64,1.78-2.9-1.09-1.88-1.93-2.58-3.88-.43-1.2-2.3-2.02-1.96-3.63.1-.47,1.08.03.88-.68-2.2-.19-3.44-.51-3.02-3.01-1.78-.41-2.32.65-3.66,1.32l-.28-.77c-2.34.95-2.37-2.15-5.08-.92.03,1.49.2,2.18-1.31,2.78l.89.49c.06,1.44-.65,2.8-.48,4.26.12,1.04,1.01,1.72.93,2.56-.01.14-1.44.35-.88,1.52h1.29s-1.71,4.52-1.71,4.52c1.98.66.4,3,1.3,4.51l-3.19.08-1.32,1.66c-.17-.57-1.39-3.05-1.39-3.22-.01-.58,1.02-1.32,1.15-2.19.19-1.22-.58-2.3-.45-3.37s1.66-2.42,1.94-3.27c.17-.51-.63-.86-.59-1.43.04-.59.99-1.2.79-2-1.38.1-2.5-.9-2.18-2.31.13-.58.38.64.49-1.81.04-.9.52-3.05.36-3.75-.09-.4-.96-.29-1.07-1.09-.05-.34-.24-3.51-.23-3.72.07-.87,1.17-1.54,1.21-2.24s-1.38-1.34.06-2.52c-2.6-1.23-.3-2.21-.17-2.98.05-.29-.39-5.28-.49-5.84-.36-2.01-1.93-3.53-1.57-5.75,1.07-.04,1.8-1.47,2.04-1.54.31-.09,1.38.33,2.05.17.94-.23,2.44-1.25,3.12-1.35,1.24-.18,3.43,1.2,4.46.5.31-.21.29-1.06.67-1.1,1.11-.13,3.58,1.83,5.35.86ZM796.76,343.06l-4.3.88c-.19.19,3,1.88,1.09,3l-1.94-.84,1.76,1.56-.46,2.74,2.15.43c.62,1.24-1.71,2.69-1.73,2.86-.12,1.14.95,3.4,2.15,3.78-.68,1.84-2.47,2.68-1.47,5,.54.81,1.69-.02,2.52.06.42.04.87.54,1.36.57,1.55.07,2.73-.61,4.1-1.1-1.45,2.14,1.68,1.08,2.55.6.95-.51,2.41-1.07,2.55-1.15.17-.11.17-.79.69-1.07.38-.21,3.13.48,2.83,1.57h.85c-.33-1.41,1.69-3.87,2.74-4.59.35-.24,1.03-.09,1.11-.17.17-.18-.69-3.89,1.29-4.5-2.01-1.29-2.61-2.5-2.6-4.94-2.58,1.67-2.53-1.15-3.09-1.61-.4-.32-1.91-.34-2.5-.1l.42-1.29c-1.13-.58-1.34.87-1.55.89-1.2.11-3.2-1.17-1.04-1.32-.39-1.37-1.73-.18-3.07-.11-2.26.11-4.56-.21-6.83.15l.42-1.29Z"></path>
      <path class="cls-1" d="M816.28,383.42c.38.31,3.87,1.07,1.29,2.38.46.78,1.49.42,2.03.76,1.77,1.09.26,5.44-2.01,4.62l.41-2.34-.42-.47-3.84-.63-.91-1.92.83-.4-.41-1.54c-1.16-.4-.73.68-.9.8-.54.39-2.11-.8-.38-1-1.08-1.11-1.21-2.94-.18-4.13l3.87.84c1.43,1.07.5,2.93.62,3.03Z"></path>
    </g>
  </g>
</svg>
